# MagicaVoxel @ Ephtracy

# group
o 

# material
mtllib chr_batman3.mtl
usemtl palette

# normals
vn -1 0 0
vn 1 0 0
vn 0 0 1
vn 0 0 -1
vn 0 -1 0
vn 0 1 0

# texcoords
vt 0.00585938 0.5
vt 0.0332031 0.5
vt 0.0488281 0.5
vt 0.0527344 0.5
vt 0.0566406 0.5
vt 0.0605469 0.5
vt 0.0996094 0.5
vt 0.373047 0.5
vt 0.384766 0.5
vt 0.400391 0.5
vt 0.404297 0.5
vt 0.509766 0.5
vt 0.517578 0.5
vt 0.623047 0.5
vt 0.642578 0.5
vt 0.701172 0.5
vt 0.744141 0.5
vt 0.994141 0.5

# verts
v -1.3 0.7 0.1
v -1.3 0.7 0
v -1.3 0.8 0.1
v -1.3 0.8 0
v -1.3 0.9 0.1
v -1.3 0.9 0
v -1.3 1 0.1
v -1.3 1 0
v -1.3 1.1 0.1
v -1.3 1.1 0
v -1.3 1.2 0.1
v -1.3 1.2 0
v -1.2 0.6 0.2
v -1.2 0.6 -0.1
v -1.2 0.7 0.1
v -1.2 0.7 0
v -1.2 0.8 0.1
v -1.2 0.8 0
v -1.2 0.9 0.1
v -1.2 0.9 0
v -1.2 1 0.1
v -1.2 1 0
v -1.2 1.1 0.1
v -1.2 1.1 0
v -1.2 1.2 0.1
v -1.2 1.2 0
v -1.2 1.8 0.2
v -1.2 1.8 -0.1
v -0.9 0 -0.7
v -0.9 0 -0.8
v -0.9 0.3 0.5
v -0.9 0.3 -0.4
v -0.9 0.6 0.8
v -0.9 0.6 0.5
v -0.9 0.6 0.2
v -0.9 0.6 -0.1
v -0.9 0.6 -0.4
v -0.9 0.6 -0.7
v -0.9 0.9 0.8
v -0.9 0.9 0.2
v -0.9 0.9 -0.1
v -0.9 0.9 -0.7
v -0.9 1 0.8
v -0.9 1 0.2
v -0.9 1 -0.1
v -0.9 1 -0.7
v -0.9 1.8 0.8
v -0.9 1.8 0.5
v -0.9 1.8 0.2
v -0.9 1.8 -0.1
v -0.9 1.8 -0.7
v -0.9 1.8 -0.8
v -0.9 2.1 0.5
v -0.9 2.1 0.2
v -0.9 3.3 0.5
v -0.9 3.3 0
v -0.9 3.3 -0.2
v -0.9 3.3 -0.7
v -0.9 3.7 0
v -0.9 3.7 -0.2
v -0.6 0 0.2
v -0.6 0 -0.1
v -0.6 0.3 0.2
v -0.6 0.3 -0.1
v 0.3 0 0.2
v 0.3 0 -0.1
v 0.3 0.3 0.5
v 0.3 0.3 0.2
v 0.3 0.3 -0.1
v 0.3 0.3 -0.4
v 0.3 0.6 0.5
v 0.3 0.6 -0.4
v 0.7 3.3 0
v 0.7 3.3 -0.2
v 0.7 3.7 0
v 0.7 3.7 -0.2
v -0.7 3.3 0
v -0.7 3.3 -0.2
v -0.7 3.7 0
v -0.7 3.7 -0.2
v -0.3 0 0.2
v -0.3 0 -0.1
v -0.3 0.3 0.5
v -0.3 0.3 0.2
v -0.3 0.3 -0.1
v -0.3 0.3 -0.4
v -0.3 0.6 0.5
v -0.3 0.6 -0.4
v 0.6 0 0.2
v 0.6 0 -0.1
v 0.6 0.3 0.2
v 0.6 0.3 -0.1
v 0.9 0 -0.7
v 0.9 0 -0.8
v 0.9 0.3 0.5
v 0.9 0.3 -0.4
v 0.9 0.6 0.8
v 0.9 0.6 0.5
v 0.9 0.6 0.2
v 0.9 0.6 -0.1
v 0.9 0.6 -0.4
v 0.9 0.6 -0.7
v 0.9 0.9 0.8
v 0.9 0.9 0.2
v 0.9 0.9 -0.1
v 0.9 0.9 -0.7
v 0.9 1 0.8
v 0.9 1 0.2
v 0.9 1 -0.1
v 0.9 1 -0.7
v 0.9 1.8 0.8
v 0.9 1.8 0.5
v 0.9 1.8 0.2
v 0.9 1.8 -0.1
v 0.9 1.8 -0.7
v 0.9 1.8 -0.8
v 0.9 2.1 0.5
v 0.9 2.1 0.2
v 0.9 3.3 0.5
v 0.9 3.3 0
v 0.9 3.3 -0.2
v 0.9 3.3 -0.7
v 0.9 3.7 0
v 0.9 3.7 -0.2
v 1.2 0.6 0.2
v 1.2 0.6 -0.1
v 1.2 0.7 0.1
v 1.2 0.7 0
v 1.2 0.8 0.1
v 1.2 0.8 0
v 1.2 0.9 0.1
v 1.2 0.9 0
v 1.2 1 0.1
v 1.2 1 0
v 1.2 1.1 0.1
v 1.2 1.1 0
v 1.2 1.2 0.1
v 1.2 1.2 0
v 1.2 1.8 0.2
v 1.2 1.8 -0.1
v 1.3 0.7 0.1
v 1.3 0.7 0
v 1.3 0.8 0.1
v 1.3 0.8 0
v 1.3 0.9 0.1
v 1.3 0.9 0
v 1.3 1 0.1
v 1.3 1 0
v 1.3 1.1 0.1
v 1.3 1.1 0
v 1.3 1.2 0.1
v 1.3 1.2 0
v -0.9 0.6 0.8
v -0.9 0.9 0.8
v -0.9 1 0.8
v -0.9 1.8 0.8
v -0.6 1.3 0.8
v -0.6 1.6 0.8
v -0.5 1.2 0.8
v -0.5 1.3 0.8
v -0.5 1.6 0.8
v -0.5 1.7 0.8
v -0.4 1.2 0.8
v -0.4 1.3 0.8
v -0.4 1.6 0.8
v -0.4 1.7 0.8
v -0.3 1.5 0.8
v -0.3 1.6 0.8
v -0.2 1.5 0.8
v -0.2 1.7 0.8
v -0.1 1.2 0.8
v -0.1 1.3 0.8
v -0.1 1.6 0.8
v -0.1 1.7 0.8
v 0.0999999 1.2 0.8
v 0.0999999 1.3 0.8
v 0.0999999 1.6 0.8
v 0.0999999 1.7 0.8
v 0.2 1.5 0.8
v 0.2 1.7 0.8
v 0.3 1.5 0.8
v 0.3 1.6 0.8
v 0.4 1.2 0.8
v 0.4 1.3 0.8
v 0.4 1.6 0.8
v 0.4 1.7 0.8
v 0.5 1.2 0.8
v 0.5 1.3 0.8
v 0.5 1.6 0.8
v 0.5 1.7 0.8
v 0.6 1.3 0.8
v 0.6 1.6 0.8
v 0.9 0.6 0.8
v 0.9 0.9 0.8
v 0.9 1 0.8
v 0.9 1.8 0.8
v -0.9 0.3 0.5
v -0.9 0.6 0.5
v -0.9 1.8 0.5
v -0.9 2.1 0.5
v -0.9 3.3 0.5
v -0.6 2.2 0.5
v -0.6 2.4 0.5
v -0.4 2.3 0.5
v -0.4 2.4 0.5
v -0.3 0.3 0.5
v -0.3 0.6 0.5
v -0.3 1.9 0.5
v -0.3 2 0.5
v -0.3 2.2 0.5
v -0.3 2.3 0.5
v 0.3 0.3 0.5
v 0.3 0.6 0.5
v 0.3 1.9 0.5
v 0.3 2 0.5
v 0.3 2.2 0.5
v 0.3 2.3 0.5
v 0.4 2.3 0.5
v 0.4 2.4 0.5
v 0.6 2.2 0.5
v 0.6 2.4 0.5
v 0.9 0.3 0.5
v 0.9 0.6 0.5
v 0.9 1.8 0.5
v 0.9 2.1 0.5
v 0.9 3.3 0.5
v -1.2 0.6 0.2
v -1.2 1.8 0.2
v -0.9 0.6 0.2
v -0.9 0.9 0.2
v -0.9 1 0.2
v -0.9 1.8 0.2
v -0.6 0 0.2
v -0.6 0.3 0.2
v -0.3 0 0.2
v -0.3 0.3 0.2
v 0.3 0 0.2
v 0.3 0.3 0.2
v 0.6 0 0.2
v 0.6 0.3 0.2
v 0.9 0.6 0.2
v 0.9 0.9 0.2
v 0.9 1 0.2
v 0.9 1.8 0.2
v 1.2 0.6 0.2
v 1.2 1.8 0.2
v -1.3 0.7 0.1
v -1.3 0.8 0.1
v -1.3 0.9 0.1
v -1.3 1 0.1
v -1.3 1.1 0.1
v -1.3 1.2 0.1
v -1.2 0.7 0.1
v -1.2 0.8 0.1
v -1.2 0.9 0.1
v -1.2 1 0.1
v -1.2 1.1 0.1
v -1.2 1.2 0.1
v 1.2 0.7 0.1
v 1.2 0.8 0.1
v 1.2 0.9 0.1
v 1.2 1 0.1
v 1.2 1.1 0.1
v 1.2 1.2 0.1
v 1.3 0.7 0.1
v 1.3 0.8 0.1
v 1.3 0.9 0.1
v 1.3 1 0.1
v 1.3 1.1 0.1
v 1.3 1.2 0.1
v -0.9 3.3 0
v -0.9 3.7 0
v -0.7 3.3 0
v -0.7 3.7 0
v 0.7 3.3 0
v 0.7 3.7 0
v 0.9 3.3 0
v 0.9 3.7 0
v -0.9 0 -0.7
v -0.9 0.6 -0.7
v 0.9 0 -0.7
v 0.9 0.6 -0.7
v -1.3 0.7 0
v -1.3 0.8 0
v -1.3 0.9 0
v -1.3 1 0
v -1.3 1.1 0
v -1.3 1.2 0
v -1.2 0.7 0
v -1.2 0.8 0
v -1.2 0.9 0
v -1.2 1 0
v -1.2 1.1 0
v -1.2 1.2 0
v 1.2 0.7 0
v 1.2 0.8 0
v 1.2 0.9 0
v 1.2 1 0
v 1.2 1.1 0
v 1.2 1.2 0
v 1.3 0.7 0
v 1.3 0.8 0
v 1.3 0.9 0
v 1.3 1 0
v 1.3 1.1 0
v 1.3 1.2 0
v -1.2 0.6 -0.1
v -1.2 1.8 -0.1
v -0.9 0.6 -0.1
v -0.9 0.9 -0.1
v -0.9 1 -0.1
v -0.9 1.8 -0.1
v -0.6 0 -0.1
v -0.6 0.3 -0.1
v -0.3 0 -0.1
v -0.3 0.3 -0.1
v 0.3 0 -0.1
v 0.3 0.3 -0.1
v 0.6 0 -0.1
v 0.6 0.3 -0.1
v 0.9 0.6 -0.1
v 0.9 0.9 -0.1
v 0.9 1 -0.1
v 0.9 1.8 -0.1
v 1.2 0.6 -0.1
v 1.2 1.8 -0.1
v -0.9 3.3 -0.2
v -0.9 3.7 -0.2
v -0.7 3.3 -0.2
v -0.7 3.7 -0.2
v 0.7 3.3 -0.2
v 0.7 3.7 -0.2
v 0.9 3.3 -0.2
v 0.9 3.7 -0.2
v -0.9 0.3 -0.4
v -0.9 0.6 -0.4
v -0.3 0.3 -0.4
v -0.3 0.6 -0.4
v 0.3 0.3 -0.4
v 0.3 0.6 -0.4
v 0.9 0.3 -0.4
v 0.9 0.6 -0.4
v -0.9 1.8 -0.7
v -0.9 3.3 -0.7
v 0.9 1.8 -0.7
v 0.9 3.3 -0.7
v -0.9 0 -0.8
v -0.9 1.8 -0.8
v 0.9 0 -0.8
v 0.9 1.8 -0.8
v -0.6 0 0.2
v -0.3 0 0.2
v 0.3 0 0.2
v 0.6 0 0.2
v -0.6 0 -0.1
v -0.3 0 -0.1
v 0.3 0 -0.1
v 0.6 0 -0.1
v -0.9 0 -0.7
v 0.9 0 -0.7
v -0.9 0 -0.8
v 0.9 0 -0.8
v -0.9 0.3 0.5
v -0.3 0.3 0.5
v 0.3 0.3 0.5
v 0.9 0.3 0.5
v -0.6 0.3 0.2
v -0.3 0.3 0.2
v 0.3 0.3 0.2
v 0.6 0.3 0.2
v -0.6 0.3 -0.1
v -0.3 0.3 -0.1
v 0.3 0.3 -0.1
v 0.6 0.3 -0.1
v -0.9 0.3 -0.4
v -0.3 0.3 -0.4
v 0.3 0.3 -0.4
v 0.9 0.3 -0.4
v -0.9 0.6 0.8
v 0.9 0.6 0.8
v -0.9 0.6 0.5
v -0.3 0.6 0.5
v 0.3 0.6 0.5
v 0.9 0.6 0.5
v -1.2 0.6 0.2
v -0.9 0.6 0.2
v 0.9 0.6 0.2
v 1.2 0.6 0.2
v -1.2 0.6 -0.1
v -0.9 0.6 -0.1
v 0.9 0.6 -0.1
v 1.2 0.6 -0.1
v -0.9 0.6 -0.4
v -0.3 0.6 -0.4
v 0.3 0.6 -0.4
v 0.9 0.6 -0.4
v -0.9 0.6 -0.7
v 0.9 0.6 -0.7
v -1.3 0.7 0.1
v -1.2 0.7 0.1
v 1.2 0.7 0.1
v 1.3 0.7 0.1
v -1.3 0.7 0
v -1.2 0.7 0
v 1.2 0.7 0
v 1.3 0.7 0
v -1.3 0.9 0.1
v -1.2 0.9 0.1
v 1.2 0.9 0.1
v 1.3 0.9 0.1
v -1.3 0.9 0
v -1.2 0.9 0
v 1.2 0.9 0
v 1.3 0.9 0
v -1.3 1.1 0.1
v -1.2 1.1 0.1
v 1.2 1.1 0.1
v 1.3 1.1 0.1
v -1.3 1.1 0
v -1.2 1.1 0
v 1.2 1.1 0
v 1.3 1.1 0
v -1.3 0.8 0.1
v -1.2 0.8 0.1
v 1.2 0.8 0.1
v 1.3 0.8 0.1
v -1.3 0.8 0
v -1.2 0.8 0
v 1.2 0.8 0
v 1.3 0.8 0
v -1.3 1 0.1
v -1.2 1 0.1
v 1.2 1 0.1
v 1.3 1 0.1
v -1.3 1 0
v -1.2 1 0
v 1.2 1 0
v 1.3 1 0
v -1.3 1.2 0.1
v -1.2 1.2 0.1
v 1.2 1.2 0.1
v 1.3 1.2 0.1
v -1.3 1.2 0
v -1.2 1.2 0
v 1.2 1.2 0
v 1.3 1.2 0
v -0.9 1.8 0.8
v 0.9 1.8 0.8
v -0.9 1.8 0.5
v 0.9 1.8 0.5
v -1.2 1.8 0.2
v -0.9 1.8 0.2
v 0.9 1.8 0.2
v 1.2 1.8 0.2
v -1.2 1.8 -0.1
v -0.9 1.8 -0.1
v 0.9 1.8 -0.1
v 1.2 1.8 -0.1
v -0.9 1.8 -0.7
v 0.9 1.8 -0.7
v -0.9 1.8 -0.8
v 0.9 1.8 -0.8
v -0.9 3.3 0.5
v 0.9 3.3 0.5
v -0.9 3.3 0
v -0.7 3.3 0
v 0.7 3.3 0
v 0.9 3.3 0
v -0.9 3.3 -0.2
v -0.7 3.3 -0.2
v 0.7 3.3 -0.2
v 0.9 3.3 -0.2
v -0.9 3.3 -0.7
v 0.9 3.3 -0.7
v -0.9 3.7 0
v -0.7 3.7 0
v 0.7 3.7 0
v 0.9 3.7 0
v -0.9 3.7 -0.2
v -0.7 3.7 -0.2
v 0.7 3.7 -0.2
v 0.9 3.7 -0.2

# faces
f 3/5/1 2/5/1 1/5/1
f 4/5/1 2/5/1 3/5/1
f 7/5/1 6/5/1 5/5/1
f 8/5/1 6/5/1 7/5/1
f 11/5/1 10/5/1 9/5/1
f 12/5/1 10/5/1 11/5/1
f 15/5/1 14/5/1 13/5/1
f 16/5/1 14/5/1 15/5/1
f 17/5/1 15/5/1 13/5/1
f 18/5/1 14/5/1 16/5/1
f 19/5/1 17/5/1 13/5/1
f 19/5/1 18/5/1 17/5/1
f 20/5/1 14/5/1 18/5/1
f 20/5/1 18/5/1 19/5/1
f 21/5/1 19/5/1 13/5/1
f 22/5/1 14/5/1 20/5/1
f 23/5/1 21/5/1 13/5/1
f 23/5/1 22/5/1 21/5/1
f 24/5/1 14/5/1 22/5/1
f 24/5/1 22/5/1 23/5/1
f 25/5/1 23/5/1 13/5/1
f 26/5/1 14/5/1 24/5/1
f 27/5/1 25/5/1 13/5/1
f 27/5/1 26/5/1 25/5/1
f 28/5/1 14/5/1 26/5/1
f 28/5/1 26/5/1 27/5/1
f 34/5/1 32/5/1 31/5/1
f 35/5/1 32/5/1 34/5/1
f 36/5/1 32/5/1 35/5/1
f 37/5/1 32/5/1 36/5/1
f 38/5/1 30/5/1 29/5/1
f 39/5/1 34/5/1 33/5/1
f 39/5/1 35/5/1 34/5/1
f 40/5/1 35/5/1 39/5/1
f 41/5/1 37/5/1 36/5/1
f 41/5/1 38/5/1 37/5/1
f 42/5/1 30/5/1 38/5/1
f 42/5/1 38/5/1 41/5/1
f 43/4/1 40/4/1 39/4/1
f 44/4/1 40/4/1 43/4/1
f 45/4/1 42/4/1 41/4/1
f 46/5/1 30/5/1 42/5/1
f 46/4/1 42/4/1 45/4/1
f 47/5/1 44/5/1 43/5/1
f 48/5/1 44/5/1 47/5/1
f 49/5/1 44/5/1 48/5/1
f 50/5/1 46/5/1 45/5/1
f 51/5/1 30/5/1 46/5/1
f 51/5/1 46/5/1 50/5/1
f 52/5/1 30/5/1 51/5/1
f 53/12/1 49/12/1 48/12/1
f 54/5/1 50/5/1 49/5/1
f 54/12/1 49/12/1 53/12/1
f 54/5/1 51/5/1 50/5/1
f 55/5/1 54/5/1 53/5/1
f 56/5/1 51/5/1 54/5/1
f 56/5/1 54/5/1 55/5/1
f 57/5/1 51/5/1 56/5/1
f 58/5/1 51/5/1 57/5/1
f 59/5/1 57/5/1 56/5/1
f 60/5/1 57/5/1 59/5/1
f 63/5/1 62/5/1 61/5/1
f 64/5/1 62/5/1 63/5/1
f 68/5/1 66/5/1 65/5/1
f 69/5/1 66/5/1 68/5/1
f 71/5/1 68/5/1 67/5/1
f 71/5/1 70/5/1 69/5/1
f 71/5/1 69/5/1 68/5/1
f 72/5/1 70/5/1 71/5/1
f 75/5/1 74/5/1 73/5/1
f 76/5/1 74/5/1 75/5/1
f 77/5/2 78/5/2 79/5/2
f 79/5/2 78/5/2 80/5/2
f 81/5/2 82/5/2 84/5/2
f 84/5/2 82/5/2 85/5/2
f 83/5/2 84/5/2 87/5/2
f 85/5/2 86/5/2 87/5/2
f 84/5/2 85/5/2 87/5/2
f 87/5/2 86/5/2 88/5/2
f 89/5/2 90/5/2 91/5/2
f 91/5/2 90/5/2 92/5/2
f 95/5/2 96/5/2 98/5/2
f 98/5/2 96/5/2 99/5/2
f 99/5/2 96/5/2 100/5/2
f 100/5/2 96/5/2 101/5/2
f 93/5/2 94/5/2 102/5/2
f 97/5/2 98/5/2 103/5/2
f 98/5/2 99/5/2 103/5/2
f 103/5/2 99/5/2 104/5/2
f 100/5/2 101/5/2 105/5/2
f 101/5/2 102/5/2 105/5/2
f 102/5/2 94/5/2 106/5/2
f 105/5/2 102/5/2 106/5/2
f 103/4/2 104/4/2 107/4/2
f 107/4/2 104/4/2 108/4/2
f 105/4/2 106/4/2 109/4/2
f 106/5/2 94/5/2 110/5/2
f 109/4/2 106/4/2 110/4/2
f 107/5/2 108/5/2 111/5/2
f 111/5/2 108/5/2 112/5/2
f 112/5/2 108/5/2 113/5/2
f 109/5/2 110/5/2 114/5/2
f 110/5/2 94/5/2 115/5/2
f 114/5/2 110/5/2 115/5/2
f 115/5/2 94/5/2 116/5/2
f 112/12/2 113/12/2 117/12/2
f 113/5/2 114/5/2 118/5/2
f 117/12/2 113/12/2 118/12/2
f 114/5/2 115/5/2 118/5/2
f 117/5/2 118/5/2 119/5/2
f 118/5/2 115/5/2 120/5/2
f 119/5/2 118/5/2 120/5/2
f 120/5/2 115/5/2 121/5/2
f 121/5/2 115/5/2 122/5/2
f 120/5/2 121/5/2 123/5/2
f 123/5/2 121/5/2 124/5/2
f 125/5/2 126/5/2 127/5/2
f 127/5/2 126/5/2 128/5/2
f 125/5/2 127/5/2 129/5/2
f 128/5/2 126/5/2 130/5/2
f 125/5/2 129/5/2 131/5/2
f 129/5/2 130/5/2 131/5/2
f 130/5/2 126/5/2 132/5/2
f 131/5/2 130/5/2 132/5/2
f 125/5/2 131/5/2 133/5/2
f 132/5/2 126/5/2 134/5/2
f 125/5/2 133/5/2 135/5/2
f 133/5/2 134/5/2 135/5/2
f 134/5/2 126/5/2 136/5/2
f 135/5/2 134/5/2 136/5/2
f 125/5/2 135/5/2 137/5/2
f 136/5/2 126/5/2 138/5/2
f 125/5/2 137/5/2 139/5/2
f 137/5/2 138/5/2 139/5/2
f 138/5/2 126/5/2 140/5/2
f 139/5/2 138/5/2 140/5/2
f 141/6/2 142/6/2 143/6/2
f 143/6/2 142/6/2 144/6/2
f 145/6/2 146/6/2 147/6/2
f 147/6/2 146/6/2 148/6/2
f 149/6/2 150/6/2 151/6/2
f 151/6/2 150/6/2 152/6/2
f 157/5/3 156/5/3 155/5/3
f 158/5/3 156/5/3 157/5/3
f 159/5/3 157/5/3 155/5/3
f 160/4/3 158/4/3 157/4/3
f 160/5/3 157/5/3 159/5/3
f 161/5/3 156/5/3 158/5/3
f 161/4/3 158/4/3 160/4/3
f 162/5/3 156/5/3 161/5/3
f 163/4/3 160/4/3 159/4/3
f 163/5/3 159/5/3 155/5/3
f 163/4/3 162/4/3 161/4/3
f 163/4/3 161/4/3 160/4/3
f 164/4/3 162/4/3 163/4/3
f 165/4/3 162/4/3 164/4/3
f 166/5/3 156/5/3 162/5/3
f 166/4/3 162/4/3 165/4/3
f 167/4/3 165/4/3 164/4/3
f 168/5/3 166/5/3 165/5/3
f 168/4/3 165/4/3 167/4/3
f 169/4/3 167/4/3 164/4/3
f 169/5/3 168/5/3 167/5/3
f 170/5/3 156/5/3 166/5/3
f 170/5/3 168/5/3 169/5/3
f 170/5/3 166/5/3 168/5/3
f 171/5/3 163/5/3 155/5/3
f 171/5/3 164/5/3 163/5/3
f 172/4/3 169/4/3 164/4/3
f 172/5/3 164/5/3 171/5/3
f 172/4/3 170/4/3 169/4/3
f 173/4/3 170/4/3 172/4/3
f 174/5/3 156/5/3 170/5/3
f 174/4/3 170/4/3 173/4/3
f 175/5/3 171/5/3 155/5/3
f 175/4/3 173/4/3 172/4/3
f 175/4/3 172/4/3 171/4/3
f 176/4/3 173/4/3 175/4/3
f 177/5/3 174/5/3 173/5/3
f 177/4/3 173/4/3 176/4/3
f 178/5/3 156/5/3 174/5/3
f 178/5/3 174/5/3 177/5/3
f 179/4/3 177/4/3 176/4/3
f 179/4/3 178/4/3 177/4/3
f 180/5/3 156/5/3 178/5/3
f 180/4/3 178/4/3 179/4/3
f 181/4/3 179/4/3 176/4/3
f 181/5/3 180/5/3 179/5/3
f 182/5/3 180/5/3 181/5/3
f 183/5/3 176/5/3 175/5/3
f 183/5/3 175/5/3 155/5/3
f 184/4/3 182/4/3 181/4/3
f 184/5/3 176/5/3 183/5/3
f 184/4/3 181/4/3 176/4/3
f 185/5/3 180/5/3 182/5/3
f 185/4/3 182/4/3 184/4/3
f 186/5/3 156/5/3 180/5/3
f 186/5/3 180/5/3 185/5/3
f 187/4/3 185/4/3 184/4/3
f 187/4/3 184/4/3 183/4/3
f 187/4/3 186/4/3 185/4/3
f 187/5/3 183/5/3 155/5/3
f 188/4/3 186/4/3 187/4/3
f 189/4/3 186/4/3 188/4/3
f 190/5/3 156/5/3 186/5/3
f 190/4/3 186/4/3 189/4/3
f 191/4/3 189/4/3 188/4/3
f 191/5/3 188/5/3 187/5/3
f 192/5/3 190/5/3 189/5/3
f 192/4/3 189/4/3 191/4/3
f 193/5/3 154/5/3 153/5/3
f 194/4/3 155/4/3 154/4/3
f 194/5/3 154/5/3 193/5/3
f 195/5/3 187/5/3 155/5/3
f 195/4/3 155/4/3 194/4/3
f 195/5/3 191/5/3 187/5/3
f 195/5/3 192/5/3 191/5/3
f 196/5/3 190/5/3 192/5/3
f 196/5/3 192/5/3 195/5/3
f 196/5/3 156/5/3 190/5/3
f 202/5/3 201/5/3 200/5/3
f 203/5/3 201/5/3 202/5/3
f 204/1/3 203/1/3 202/1/3
f 205/5/3 201/5/3 203/5/3
f 205/1/3 203/1/3 204/1/3
f 206/5/3 198/5/3 197/5/3
f 207/5/3 198/5/3 206/5/3
f 208/12/3 200/12/3 199/12/3
f 209/12/3 200/12/3 208/12/3
f 210/5/3 202/5/3 200/5/3
f 210/1/3 204/1/3 202/1/3
f 211/5/3 205/5/3 204/5/3
f 211/1/3 204/1/3 210/1/3
f 214/10/3 209/10/3 208/10/3
f 214/12/3 208/12/3 199/12/3
f 215/12/3 200/12/3 209/12/3
f 215/10/3 209/10/3 214/10/3
f 216/5/3 210/5/3 200/5/3
f 216/5/3 211/5/3 210/5/3
f 217/5/3 205/5/3 211/5/3
f 217/5/3 211/5/3 216/5/3
f 218/1/3 217/1/3 216/1/3
f 218/5/3 205/5/3 217/5/3
f 219/5/3 201/5/3 205/5/3
f 219/5/3 205/5/3 218/5/3
f 220/1/3 218/1/3 216/1/3
f 220/5/3 216/5/3 200/5/3
f 220/1/3 219/1/3 218/1/3
f 221/5/3 201/5/3 219/5/3
f 221/1/3 219/1/3 220/1/3
f 222/5/3 213/5/3 212/5/3
f 223/5/3 213/5/3 222/5/3
f 224/12/3 215/12/3 214/12/3
f 224/12/3 214/12/3 199/12/3
f 225/5/3 220/5/3 200/5/3
f 225/12/3 215/12/3 224/12/3
f 225/12/3 200/12/3 215/12/3
f 225/5/3 221/5/3 220/5/3
f 226/5/3 201/5/3 221/5/3
f 226/5/3 221/5/3 225/5/3
f 229/5/3 228/5/3 227/5/3
f 230/5/3 228/5/3 229/5/3
f 231/5/3 228/5/3 230/5/3
f 232/5/3 228/5/3 231/5/3
f 235/5/3 234/5/3 233/5/3
f 236/5/3 234/5/3 235/5/3
f 239/5/3 238/5/3 237/5/3
f 240/5/3 238/5/3 239/5/3
f 245/5/3 242/5/3 241/5/3
f 245/5/3 244/5/3 243/5/3
f 245/5/3 243/5/3 242/5/3
f 246/5/3 244/5/3 245/5/3
f 253/5/3 248/5/3 247/5/3
f 254/5/3 248/5/3 253/5/3
f 255/5/3 250/5/3 249/5/3
f 256/5/3 250/5/3 255/5/3
f 257/5/3 252/5/3 251/5/3
f 258/5/3 252/5/3 257/5/3
f 265/6/3 260/6/3 259/6/3
f 266/6/3 260/6/3 265/6/3
f 267/6/3 262/6/3 261/6/3
f 268/6/3 262/6/3 267/6/3
f 269/6/3 264/6/3 263/6/3
f 270/6/3 264/6/3 269/6/3
f 273/5/3 272/5/3 271/5/3
f 274/5/3 272/5/3 273/5/3
f 277/5/3 276/5/3 275/5/3
f 278/5/3 276/5/3 277/5/3
f 281/5/3 280/5/3 279/5/3
f 282/5/3 280/5/3 281/5/3
f 283/5/4 284/5/4 289/5/4
f 289/5/4 284/5/4 290/5/4
f 285/5/4 286/5/4 291/5/4
f 291/5/4 286/5/4 292/5/4
f 287/5/4 288/5/4 293/5/4
f 293/5/4 288/5/4 294/5/4
f 295/6/4 296/6/4 301/6/4
f 301/6/4 296/6/4 302/6/4
f 297/6/4 298/6/4 303/6/4
f 303/6/4 298/6/4 304/6/4
f 299/6/4 300/6/4 305/6/4
f 305/6/4 300/6/4 306/6/4
f 307/5/4 308/5/4 309/5/4
f 309/5/4 308/5/4 310/5/4
f 310/5/4 308/5/4 311/5/4
f 311/5/4 308/5/4 312/5/4
f 313/5/4 314/5/4 315/5/4
f 315/5/4 314/5/4 316/5/4
f 317/5/4 318/5/4 319/5/4
f 319/5/4 318/5/4 320/5/4
f 321/5/4 322/5/4 325/5/4
f 323/5/4 324/5/4 325/5/4
f 322/5/4 323/5/4 325/5/4
f 325/5/4 324/5/4 326/5/4
f 327/5/4 328/5/4 329/5/4
f 329/5/4 328/5/4 330/5/4
f 331/5/4 332/5/4 333/5/4
f 333/5/4 332/5/4 334/5/4
f 335/5/4 336/5/4 337/5/4
f 337/5/4 336/5/4 338/5/4
f 339/5/4 340/5/4 341/5/4
f 341/5/4 340/5/4 342/5/4
f 343/5/4 344/5/4 345/5/4
f 345/5/4 344/5/4 346/5/4
f 347/5/4 348/5/4 349/5/4
f 349/5/4 348/5/4 350/5/4
f 355/5/5 352/5/5 351/5/5
f 356/5/5 352/5/5 355/5/5
f 357/5/5 354/5/5 353/5/5
f 358/5/5 354/5/5 357/5/5
f 361/5/5 360/5/5 359/5/5
f 362/5/5 360/5/5 361/5/5
f 367/5/5 364/5/5 363/5/5
f 368/5/5 364/5/5 367/5/5
f 369/5/5 366/5/5 365/5/5
f 370/5/5 366/5/5 369/5/5
f 371/5/5 367/5/5 363/5/5
f 374/5/5 366/5/5 370/5/5
f 375/5/5 372/5/5 371/5/5
f 375/5/5 371/5/5 363/5/5
f 376/5/5 372/5/5 375/5/5
f 377/5/5 374/5/5 373/5/5
f 378/5/5 366/5/5 374/5/5
f 378/5/5 374/5/5 377/5/5
f 381/5/5 380/5/5 379/5/5
f 382/5/5 380/5/5 381/5/5
f 383/5/5 380/5/5 382/5/5
f 384/5/5 380/5/5 383/5/5
f 389/5/5 386/5/5 385/5/5
f 390/5/5 386/5/5 389/5/5
f 391/5/5 388/5/5 387/5/5
f 392/5/5 388/5/5 391/5/5
f 394/5/5 383/5/5 382/5/5
f 395/5/5 383/5/5 394/5/5
f 397/5/5 394/5/5 393/5/5
f 397/5/5 396/5/5 395/5/5
f 397/5/5 395/5/5 394/5/5
f 398/5/5 396/5/5 397/5/5
f 403/5/5 400/5/5 399/5/5
f 404/5/5 400/5/5 403/5/5
f 405/6/5 402/6/5 401/6/5
f 406/6/5 402/6/5 405/6/5
f 411/5/5 408/5/5 407/5/5
f 412/5/5 408/5/5 411/5/5
f 413/6/5 410/6/5 409/6/5
f 414/6/5 410/6/5 413/6/5
f 419/5/5 416/5/5 415/5/5
f 420/5/5 416/5/5 419/5/5
f 421/6/5 418/6/5 417/6/5
f 422/6/5 418/6/5 421/6/5
f 423/5/6 424/5/6 427/5/6
f 427/5/6 424/5/6 428/5/6
f 425/6/6 426/6/6 429/6/6
f 429/6/6 426/6/6 430/6/6
f 431/5/6 432/5/6 435/5/6
f 435/5/6 432/5/6 436/5/6
f 433/6/6 434/6/6 437/6/6
f 437/6/6 434/6/6 438/6/6
f 439/5/6 440/5/6 443/5/6
f 443/5/6 440/5/6 444/5/6
f 441/6/6 442/6/6 445/6/6
f 445/6/6 442/6/6 446/6/6
f 447/5/6 448/5/6 449/5/6
f 449/5/6 448/5/6 450/5/6
f 451/5/6 452/5/6 455/5/6
f 455/5/6 452/5/6 456/5/6
f 453/5/6 454/5/6 457/5/6
f 457/5/6 454/5/6 458/5/6
f 459/5/6 460/5/6 461/5/6
f 461/5/6 460/5/6 462/5/6
f 463/5/6 464/5/6 465/5/6
f 465/5/6 464/5/6 466/5/6
f 466/5/6 464/5/6 467/5/6
f 467/5/6 464/5/6 468/5/6
f 466/5/6 467/5/6 470/5/6
f 470/5/6 467/5/6 471/5/6
f 469/5/6 470/5/6 473/5/6
f 471/5/6 472/5/6 473/5/6
f 470/5/6 471/5/6 473/5/6
f 473/5/6 472/5/6 474/5/6
f 475/5/6 476/5/6 479/5/6
f 479/5/6 476/5/6 480/5/6
f 477/5/6 478/5/6 481/5/6
f 481/5/6 478/5/6 482/5/6
