# MagicaVoxel @ Ephtracy

# group
o 

# material
mtllib frog-1.mtl
usemtl palette

# normals
vn -1 0 0
vn 1 0 0
vn 0 0 1
vn 0 0 -1
vn 0 -1 0
vn 0 1 0

# texcoords
vt 0.478516 0.5
vt 0.482422 0.5
vt 0.486328 0.5
vt 0.783203 0.5

# verts
v -0.7 0 0.4
v -0.7 0 0.2
v -0.7 0 -0.2
v -0.7 0 -0.4
v -0.7 0.1 0.4
v -0.7 0.1 0.2
v -0.7 0.1 -0.2
v -0.7 0.1 -0.4
v -0.6 0 0.5
v -0.6 0 0.4
v -0.6 0 0.2
v -0.6 0 0.1
v -0.6 0 -0.1
v -0.6 0 -0.2
v -0.6 0 -0.4
v -0.6 0 -0.5
v -0.6 0.1 0.5
v -0.6 0.1 0.4
v -0.6 0.1 0.2
v -0.6 0.1 0.1
v -0.6 0.1 -0.1
v -0.6 0.1 -0.2
v -0.6 0.1 -0.4
v -0.6 0.1 -0.5
v -0.5 0.1 0.5
v -0.5 0.1 0.2
v -0.5 0.1 -0.2
v -0.5 0.1 -0.5
v -0.5 0.3 0.5
v -0.5 0.3 0.2
v -0.5 0.3 -0.2
v -0.5 0.3 -0.5
v -0.4 0.1 0.2
v -0.4 0.1 0.1
v -0.4 0.1 -0.1
v -0.4 0.1 -0.2
v -0.4 0.3 0.4
v -0.4 0.3 0.2
v -0.4 0.3 -0.2
v -0.4 0.3 -0.4
v -0.4 0.4 0.1
v -0.4 0.4 -0.1
v -0.4 0.5 0.4
v -0.4 0.5 0.3
v -0.4 0.5 0.1
v -0.4 0.5 -0.1
v -0.4 0.5 -0.3
v -0.4 0.5 -0.4
v -0.4 0.6 0.3
v -0.4 0.6 0.1
v -0.4 0.6 -0.1
v -0.4 0.6 -0.3
v -0.4 0.7 0.4
v -0.4 0.7 -0.4
v -0.3 0.7 0.4
v -0.3 0.7 0.2
v -0.3 0.7 0.1
v -0.3 0.7 -0.1
v -0.3 0.7 -0.2
v -0.3 0.7 -0.4
v -0.3 0.8 0.4
v -0.3 0.8 0.2
v -0.3 0.8 0.1
v -0.3 0.8 -0.1
v -0.3 0.8 -0.2
v -0.3 0.8 -0.4
v -0.3 0.9 0.4
v -0.3 0.9 0.1
v -0.3 0.9 -0.1
v -0.3 0.9 -0.4
v 0.3 0 0.6
v 0.3 0 0.3
v 0.3 0 -0.3
v 0.3 0 -0.6
v 0.3 0.1 0.6
v 0.3 0.1 0.5
v 0.3 0.1 0.4
v 0.3 0.1 0.3
v 0.3 0.1 -0.3
v 0.3 0.1 -0.4
v 0.3 0.1 -0.5
v 0.3 0.1 -0.6
v 0.3 0.3 0.5
v 0.3 0.3 0.4
v 0.3 0.3 -0.4
v 0.3 0.3 -0.5
v -0.3 0 0.5
v -0.3 0 0.1
v -0.3 0 -0.1
v -0.3 0 -0.5
v -0.3 0.1 0.4
v -0.3 0.1 0.1
v -0.3 0.1 -0.1
v -0.3 0.1 -0.4
v -0.3 0.3 0.5
v -0.3 0.3 0.4
v -0.3 0.3 -0.4
v -0.3 0.3 -0.5
v -0.1 0.7 0.4
v -0.1 0.7 0.1
v -0.1 0.7 -0.1
v -0.1 0.7 -0.4
v -0.1 0.9 0.4
v -0.1 0.9 0.1
v -0.1 0.9 -0.1
v -0.1 0.9 -0.4
v 0.4 0.1 0.3
v 0.4 0.1 -0.3
v 0.4 0.3 0.4
v 0.4 0.3 0.3
v 0.4 0.3 -0.3
v 0.4 0.3 -0.4
v 0.4 0.7 0.4
v 0.4 0.7 -0.4
v 0.5 0.1 0.5
v 0.5 0.1 0.3
v 0.5 0.1 -0.3
v 0.5 0.1 -0.5
v 0.5 0.3 0.5
v 0.5 0.3 0.3
v 0.5 0.3 -0.3
v 0.5 0.3 -0.5
v 0.7 0 0.6
v 0.7 0 0.3
v 0.7 0 -0.3
v 0.7 0 -0.6
v 0.7 0.1 0.6
v 0.7 0.1 0.3
v 0.7 0.1 -0.3
v 0.7 0.1 -0.6
v 0.3 0 0.6
v 0.3 0.1 0.6
v 0.7 0 0.6
v 0.7 0.1 0.6
v -0.6 0 0.5
v -0.6 0.1 0.5
v -0.5 0.1 0.5
v -0.5 0.3 0.5
v -0.3 0 0.5
v -0.3 0.3 0.5
v 0.3 0.1 0.5
v 0.3 0.3 0.5
v 0.5 0.1 0.5
v 0.5 0.3 0.5
v -0.7 0 0.4
v -0.7 0.1 0.4
v -0.6 0 0.4
v -0.6 0.1 0.4
v -0.4 0.3 0.4
v -0.4 0.5 0.4
v -0.4 0.7 0.4
v -0.3 0.1 0.4
v -0.3 0.3 0.4
v -0.3 0.4 0.4
v -0.3 0.5 0.4
v -0.3 0.7 0.4
v -0.3 0.8 0.4
v -0.3 0.9 0.4
v -0.2 0.1 0.4
v -0.2 0.4 0.4
v -0.2 0.7 0.4
v -0.2 0.8 0.4
v -0.1 0.7 0.4
v -0.1 0.9 0.4
v 0.3 0.1 0.4
v 0.3 0.3 0.4
v 0.4 0.3 0.4
v 0.4 0.7 0.4
v -0.6 0 -0.1
v -0.6 0.1 -0.1
v -0.4 0.1 -0.1
v -0.3 0 -0.1
v -0.3 0.1 -0.1
v -0.3 0.7 -0.1
v -0.3 0.8 -0.1
v -0.3 0.9 -0.1
v -0.2 0.7 -0.1
v -0.2 0.8 -0.1
v -0.1 0.7 -0.1
v -0.1 0.9 -0.1
v -0.7 0 -0.2
v -0.7 0.1 -0.2
v -0.6 0 -0.2
v -0.6 0.1 -0.2
v -0.5 0.1 -0.2
v -0.5 0.3 -0.2
v -0.4 0.1 -0.2
v -0.4 0.3 -0.2
v 0.3 0 -0.3
v 0.3 0.1 -0.3
v 0.4 0.1 -0.3
v 0.4 0.3 -0.3
v 0.5 0.1 -0.3
v 0.5 0.3 -0.3
v 0.7 0 -0.3
v 0.7 0.1 -0.3
v 0.3 0 0.3
v 0.3 0.1 0.3
v 0.4 0.1 0.3
v 0.4 0.3 0.3
v 0.5 0.1 0.3
v 0.5 0.3 0.3
v 0.7 0 0.3
v 0.7 0.1 0.3
v -0.7 0 0.2
v -0.7 0.1 0.2
v -0.6 0 0.2
v -0.6 0.1 0.2
v -0.5 0.1 0.2
v -0.5 0.3 0.2
v -0.4 0.1 0.2
v -0.4 0.3 0.2
v -0.6 0 0.1
v -0.6 0.1 0.1
v -0.4 0.1 0.1
v -0.3 0 0.1
v -0.3 0.1 0.1
v -0.3 0.7 0.1
v -0.3 0.8 0.1
v -0.3 0.9 0.1
v -0.2 0.7 0.1
v -0.2 0.8 0.1
v -0.1 0.7 0.1
v -0.1 0.9 0.1
v -0.7 0 -0.4
v -0.7 0.1 -0.4
v -0.6 0 -0.4
v -0.6 0.1 -0.4
v -0.4 0.3 -0.4
v -0.4 0.5 -0.4
v -0.4 0.7 -0.4
v -0.3 0.1 -0.4
v -0.3 0.3 -0.4
v -0.3 0.4 -0.4
v -0.3 0.5 -0.4
v -0.3 0.7 -0.4
v -0.3 0.8 -0.4
v -0.3 0.9 -0.4
v -0.2 0.1 -0.4
v -0.2 0.4 -0.4
v -0.2 0.7 -0.4
v -0.2 0.8 -0.4
v -0.1 0.7 -0.4
v -0.1 0.9 -0.4
v 0.3 0.1 -0.4
v 0.3 0.3 -0.4
v 0.4 0.3 -0.4
v 0.4 0.7 -0.4
v -0.6 0 -0.5
v -0.6 0.1 -0.5
v -0.5 0.1 -0.5
v -0.5 0.3 -0.5
v -0.3 0 -0.5
v -0.3 0.3 -0.5
v 0.3 0.1 -0.5
v 0.3 0.3 -0.5
v 0.5 0.1 -0.5
v 0.5 0.3 -0.5
v 0.3 0 -0.6
v 0.3 0.1 -0.6
v 0.7 0 -0.6
v 0.7 0.1 -0.6
v 0.3 0 0.6
v 0.7 0 0.6
v -0.6 0 0.5
v -0.3 0 0.5
v -0.7 0 0.4
v -0.6 0 0.4
v 0.3 0 0.3
v 0.7 0 0.3
v -0.7 0 0.2
v -0.6 0 0.2
v -0.6 0 0.1
v -0.3 0 0.1
v -0.6 0 -0.1
v -0.3 0 -0.1
v -0.7 0 -0.2
v -0.6 0 -0.2
v 0.3 0 -0.3
v 0.7 0 -0.3
v -0.7 0 -0.4
v -0.6 0 -0.4
v -0.6 0 -0.5
v -0.3 0 -0.5
v 0.3 0 -0.6
v 0.7 0 -0.6
v -0.3 0.1 0.4
v -0.2 0.1 0.4
v 0.3 0.1 0.4
v -0.2 0.1 0.3
v 0.3 0.1 0.3
v 0.4 0.1 0.3
v -0.4 0.1 0.1
v -0.3 0.1 0.1
v -0.4 0.1 -0.1
v -0.3 0.1 -0.1
v -0.2 0.1 -0.3
v 0.3 0.1 -0.3
v 0.4 0.1 -0.3
v -0.3 0.1 -0.4
v -0.2 0.1 -0.4
v 0.3 0.1 -0.4
v 0.3 0.1 0.6
v 0.7 0.1 0.6
v -0.6 0.1 0.5
v -0.5 0.1 0.5
v 0.3 0.1 0.5
v 0.5 0.1 0.5
v -0.7 0.1 0.4
v -0.6 0.1 0.4
v 0.5 0.1 0.3
v 0.7 0.1 0.3
v -0.7 0.1 0.2
v -0.6 0.1 0.2
v -0.5 0.1 0.2
v -0.4 0.1 0.2
v -0.6 0.1 0.1
v -0.4 0.1 0.1
v -0.6 0.1 -0.1
v -0.4 0.1 -0.1
v -0.7 0.1 -0.2
v -0.6 0.1 -0.2
v -0.5 0.1 -0.2
v -0.4 0.1 -0.2
v 0.5 0.1 -0.3
v 0.7 0.1 -0.3
v -0.7 0.1 -0.4
v -0.6 0.1 -0.4
v -0.6 0.1 -0.5
v -0.5 0.1 -0.5
v 0.3 0.1 -0.5
v 0.5 0.1 -0.5
v 0.3 0.1 -0.6
v 0.7 0.1 -0.6
v -0.5 0.3 0.5
v -0.3 0.3 0.5
v 0.3 0.3 0.5
v 0.5 0.3 0.5
v -0.4 0.3 0.4
v -0.3 0.3 0.4
v 0.3 0.3 0.4
v 0.4 0.3 0.4
v 0.4 0.3 0.3
v 0.5 0.3 0.3
v -0.5 0.3 0.2
v -0.4 0.3 0.2
v -0.5 0.3 -0.2
v -0.4 0.3 -0.2
v 0.4 0.3 -0.3
v 0.5 0.3 -0.3
v -0.4 0.3 -0.4
v -0.3 0.3 -0.4
v 0.3 0.3 -0.4
v 0.4 0.3 -0.4
v -0.5 0.3 -0.5
v -0.3 0.3 -0.5
v 0.3 0.3 -0.5
v 0.5 0.3 -0.5
v -0.4 0.7 0.4
v -0.3 0.7 0.4
v -0.1 0.7 0.4
v 0.4 0.7 0.4
v -0.3 0.7 0.2
v -0.3 0.7 0.1
v -0.2 0.7 0.1
v -0.1 0.7 0.1
v -0.3 0.7 -0.1
v -0.2 0.7 -0.1
v -0.1 0.7 -0.1
v -0.3 0.7 -0.2
v -0.4 0.7 -0.4
v -0.3 0.7 -0.4
v -0.1 0.7 -0.4
v 0.4 0.7 -0.4
v -0.3 0.9 0.4
v -0.1 0.9 0.4
v -0.3 0.9 0.1
v -0.1 0.9 0.1
v -0.3 0.9 -0.1
v -0.1 0.9 -0.1
v -0.3 0.9 -0.4
v -0.1 0.9 -0.4

# faces
f 5/4/1 2/4/1 1/4/1
f 6/4/1 2/4/1 5/4/1
f 7/4/1 4/4/1 3/4/1
f 8/4/1 4/4/1 7/4/1
f 17/4/1 10/4/1 9/4/1
f 18/4/1 10/4/1 17/4/1
f 19/4/1 12/4/1 11/4/1
f 20/4/1 12/4/1 19/4/1
f 21/4/1 14/4/1 13/4/1
f 22/4/1 14/4/1 21/4/1
f 23/4/1 16/4/1 15/4/1
f 24/4/1 16/4/1 23/4/1
f 29/4/1 26/4/1 25/4/1
f 30/4/1 26/4/1 29/4/1
f 31/4/1 28/4/1 27/4/1
f 32/4/1 28/4/1 31/4/1
f 38/1/1 34/1/1 33/1/1
f 38/1/1 36/1/1 35/1/1
f 38/1/1 35/1/1 34/1/1
f 39/1/1 36/1/1 38/1/1
f 41/1/1 38/1/1 37/1/1
f 41/1/1 40/1/1 39/1/1
f 41/1/1 39/1/1 38/1/1
f 42/1/1 40/1/1 41/1/1
f 43/1/1 41/1/1 37/1/1
f 44/1/1 41/1/1 43/1/1
f 45/2/1 42/2/1 41/2/1
f 45/1/1 41/1/1 44/1/1
f 46/1/1 40/1/1 42/1/1
f 46/2/1 42/2/1 45/2/1
f 47/1/1 40/1/1 46/1/1
f 48/1/1 40/1/1 47/1/1
f 49/2/1 45/2/1 44/2/1
f 49/4/1 44/4/1 43/4/1
f 50/4/1 46/4/1 45/4/1
f 50/2/1 45/2/1 49/2/1
f 51/2/1 47/2/1 46/2/1
f 51/4/1 46/4/1 50/4/1
f 52/4/1 48/4/1 47/4/1
f 52/2/1 47/2/1 51/2/1
f 53/4/1 51/4/1 50/4/1
f 53/4/1 49/4/1 43/4/1
f 53/4/1 52/4/1 51/4/1
f 53/4/1 50/4/1 49/4/1
f 54/4/1 48/4/1 52/4/1
f 54/4/1 52/4/1 53/4/1
f 61/3/1 56/3/1 55/3/1
f 62/1/1 57/1/1 56/1/1
f 62/3/1 56/3/1 61/3/1
f 63/1/1 57/1/1 62/1/1
f 64/1/1 59/1/1 58/1/1
f 65/3/1 60/3/1 59/3/1
f 65/1/1 59/1/1 64/1/1
f 66/3/1 60/3/1 65/3/1
f 67/4/1 63/4/1 62/4/1
f 67/4/1 62/4/1 61/4/1
f 68/4/1 63/4/1 67/4/1
f 69/4/1 66/4/1 65/4/1
f 69/4/1 65/4/1 64/4/1
f 70/4/1 66/4/1 69/4/1
f 75/4/1 72/4/1 71/4/1
f 76/4/1 72/4/1 75/4/1
f 77/4/1 72/4/1 76/4/1
f 78/4/1 72/4/1 77/4/1
f 79/4/1 74/4/1 73/4/1
f 80/4/1 74/4/1 79/4/1
f 81/4/1 74/4/1 80/4/1
f 82/4/1 74/4/1 81/4/1
f 83/4/1 77/4/1 76/4/1
f 84/4/1 77/4/1 83/4/1
f 85/4/1 81/4/1 80/4/1
f 86/4/1 81/4/1 85/4/1
f 87/4/2 88/4/2 91/4/2
f 91/4/2 88/4/2 92/4/2
f 89/4/2 90/4/2 93/4/2
f 93/4/2 90/4/2 94/4/2
f 87/4/2 91/4/2 95/4/2
f 95/4/2 91/4/2 96/4/2
f 94/4/2 90/4/2 97/4/2
f 97/4/2 90/4/2 98/4/2
f 99/4/2 100/4/2 103/4/2
f 103/4/2 100/4/2 104/4/2
f 101/4/2 102/4/2 105/4/2
f 105/4/2 102/4/2 106/4/2
f 107/4/2 108/4/2 110/4/2
f 110/4/2 108/4/2 111/4/2
f 109/4/2 110/4/2 113/4/2
f 111/4/2 112/4/2 113/4/2
f 110/4/2 111/4/2 113/4/2
f 113/4/2 112/4/2 114/4/2
f 115/4/2 116/4/2 119/4/2
f 119/4/2 116/4/2 120/4/2
f 117/4/2 118/4/2 121/4/2
f 121/4/2 118/4/2 122/4/2
f 123/4/2 124/4/2 127/4/2
f 127/4/2 124/4/2 128/4/2
f 125/4/2 126/4/2 129/4/2
f 129/4/2 126/4/2 130/4/2
f 133/4/3 132/4/3 131/4/3
f 134/4/3 132/4/3 133/4/3
f 137/4/3 136/4/3 135/4/3
f 139/4/3 137/4/3 135/4/3
f 139/4/3 138/4/3 137/4/3
f 140/4/3 138/4/3 139/4/3
f 143/4/3 142/4/3 141/4/3
f 144/4/3 142/4/3 143/4/3
f 147/4/3 146/4/3 145/4/3
f 148/4/3 146/4/3 147/4/3
f 153/1/3 150/1/3 149/1/3
f 154/1/3 150/1/3 153/1/3
f 155/4/3 151/4/3 150/4/3
f 155/1/3 150/1/3 154/1/3
f 156/4/3 151/4/3 155/4/3
f 159/1/3 154/1/3 153/1/3
f 159/1/3 153/1/3 152/1/3
f 160/4/3 155/4/3 154/4/3
f 160/1/3 154/1/3 159/1/3
f 160/4/3 156/4/3 155/4/3
f 161/3/3 157/3/3 156/3/3
f 161/4/3 156/4/3 160/4/3
f 162/4/3 158/4/3 157/4/3
f 162/3/3 157/3/3 161/3/3
f 163/4/3 161/4/3 160/4/3
f 163/4/3 160/4/3 159/4/3
f 163/4/3 162/4/3 161/4/3
f 164/4/3 158/4/3 162/4/3
f 164/4/3 162/4/3 163/4/3
f 165/4/3 163/4/3 159/4/3
f 166/4/3 163/4/3 165/4/3
f 167/4/3 163/4/3 166/4/3
f 168/4/3 163/4/3 167/4/3
f 171/4/3 170/4/3 169/4/3
f 172/4/3 171/4/3 169/4/3
f 173/4/3 171/4/3 172/4/3
f 177/1/3 175/1/3 174/1/3
f 178/4/3 176/4/3 175/4/3
f 178/1/3 175/1/3 177/1/3
f 179/4/3 178/4/3 177/4/3
f 180/4/3 176/4/3 178/4/3
f 180/4/3 178/4/3 179/4/3
f 183/4/3 182/4/3 181/4/3
f 184/4/3 182/4/3 183/4/3
f 187/4/3 186/4/3 185/4/3
f 188/4/3 186/4/3 187/4/3
f 191/4/3 190/4/3 189/4/3
f 193/4/3 191/4/3 189/4/3
f 193/4/3 192/4/3 191/4/3
f 194/4/3 192/4/3 193/4/3
f 195/4/3 193/4/3 189/4/3
f 196/4/3 193/4/3 195/4/3
f 197/4/4 198/4/4 199/4/4
f 197/4/4 199/4/4 201/4/4
f 199/4/4 200/4/4 201/4/4
f 201/4/4 200/4/4 202/4/4
f 197/4/4 201/4/4 203/4/4
f 203/4/4 201/4/4 204/4/4
f 205/4/4 206/4/4 207/4/4
f 207/4/4 206/4/4 208/4/4
f 209/4/4 210/4/4 211/4/4
f 211/4/4 210/4/4 212/4/4
f 213/4/4 214/4/4 215/4/4
f 213/4/4 215/4/4 216/4/4
f 216/4/4 215/4/4 217/4/4
f 218/1/4 219/1/4 221/1/4
f 219/4/4 220/4/4 222/4/4
f 221/1/4 219/1/4 222/1/4
f 221/4/4 222/4/4 223/4/4
f 222/4/4 220/4/4 224/4/4
f 223/4/4 222/4/4 224/4/4
f 225/4/4 226/4/4 227/4/4
f 227/4/4 226/4/4 228/4/4
f 229/1/4 230/1/4 233/1/4
f 233/1/4 230/1/4 234/1/4
f 230/4/4 231/4/4 235/4/4
f 234/1/4 230/1/4 235/1/4
f 235/4/4 231/4/4 236/4/4
f 233/1/4 234/1/4 239/1/4
f 232/1/4 233/1/4 239/1/4
f 234/4/4 235/4/4 240/4/4
f 239/1/4 234/1/4 240/1/4
f 235/4/4 236/4/4 240/4/4
f 236/3/4 237/3/4 241/3/4
f 240/4/4 236/4/4 241/4/4
f 237/4/4 238/4/4 242/4/4
f 241/3/4 237/3/4 242/3/4
f 240/4/4 241/4/4 243/4/4
f 239/4/4 240/4/4 243/4/4
f 241/4/4 242/4/4 243/4/4
f 242/4/4 238/4/4 244/4/4
f 243/4/4 242/4/4 244/4/4
f 239/4/4 243/4/4 245/4/4
f 245/4/4 243/4/4 246/4/4
f 246/4/4 243/4/4 247/4/4
f 247/4/4 243/4/4 248/4/4
f 249/4/4 250/4/4 251/4/4
f 249/4/4 251/4/4 253/4/4
f 251/4/4 252/4/4 253/4/4
f 253/4/4 252/4/4 254/4/4
f 255/4/4 256/4/4 257/4/4
f 257/4/4 256/4/4 258/4/4
f 259/4/4 260/4/4 261/4/4
f 261/4/4 260/4/4 262/4/4
f 268/4/5 266/4/5 265/4/5
f 269/4/5 264/4/5 263/4/5
f 270/4/5 264/4/5 269/4/5
f 271/4/5 268/4/5 267/4/5
f 272/4/5 266/4/5 268/4/5
f 272/4/5 268/4/5 271/4/5
f 273/4/5 266/4/5 272/4/5
f 274/4/5 266/4/5 273/4/5
f 278/4/5 276/4/5 275/4/5
f 281/4/5 278/4/5 277/4/5
f 282/4/5 276/4/5 278/4/5
f 282/4/5 278/4/5 281/4/5
f 283/4/5 276/4/5 282/4/5
f 284/4/5 276/4/5 283/4/5
f 285/4/5 280/4/5 279/4/5
f 286/4/5 280/4/5 285/4/5
f 290/1/5 288/1/5 287/1/5
f 290/4/5 289/4/5 288/4/5
f 291/4/5 289/4/5 290/4/5
f 294/1/5 290/1/5 287/1/5
f 294/1/5 291/1/5 290/1/5
f 295/1/5 294/1/5 293/1/5
f 296/1/5 291/1/5 294/1/5
f 296/1/5 294/1/5 295/1/5
f 297/1/5 291/1/5 296/1/5
f 298/4/5 292/4/5 291/4/5
f 298/1/5 291/1/5 297/1/5
f 299/4/5 292/4/5 298/4/5
f 300/1/5 297/1/5 296/1/5
f 301/4/5 298/4/5 297/4/5
f 301/1/5 297/1/5 300/1/5
f 302/4/5 298/4/5 301/4/5
f 303/4/6 304/4/6 307/4/6
f 307/4/6 304/4/6 308/4/6
f 305/4/6 306/4/6 310/4/6
f 308/4/6 304/4/6 311/4/6
f 311/4/6 304/4/6 312/4/6
f 309/4/6 310/4/6 313/4/6
f 310/4/6 306/4/6 314/4/6
f 313/4/6 310/4/6 314/4/6
f 314/4/6 306/4/6 315/4/6
f 315/4/6 316/4/6 317/4/6
f 314/4/6 315/4/6 317/4/6
f 317/4/6 316/4/6 318/4/6
f 319/4/6 320/4/6 322/4/6
f 322/4/6 320/4/6 323/4/6
f 323/4/6 320/4/6 324/4/6
f 322/4/6 323/4/6 327/4/6
f 321/4/6 322/4/6 327/4/6
f 327/4/6 323/4/6 328/4/6
f 328/4/6 323/4/6 329/4/6
f 329/4/6 323/4/6 330/4/6
f 325/4/6 326/4/6 332/4/6
f 331/4/6 332/4/6 333/4/6
f 332/4/6 326/4/6 334/4/6
f 333/4/6 332/4/6 334/4/6
f 335/4/6 336/4/6 339/4/6
f 339/4/6 336/4/6 340/4/6
f 337/4/6 338/4/6 341/4/6
f 341/4/6 338/4/6 342/4/6
f 342/4/6 338/4/6 343/4/6
f 343/4/6 338/4/6 344/4/6
f 335/4/6 339/4/6 345/4/6
f 345/4/6 339/4/6 346/4/6
f 347/4/6 348/4/6 351/4/6
f 349/4/6 350/4/6 354/4/6
f 351/4/6 352/4/6 355/4/6
f 347/4/6 351/4/6 355/4/6
f 355/4/6 352/4/6 356/4/6
f 353/4/6 354/4/6 357/4/6
f 354/4/6 350/4/6 358/4/6
f 357/4/6 354/4/6 358/4/6
f 359/4/6 360/4/6 363/4/6
f 359/4/6 363/4/6 364/4/6
f 361/4/6 362/4/6 366/4/6
f 364/4/6 365/4/6 367/4/6
f 365/4/6 366/4/6 367/4/6
f 359/4/6 364/4/6 367/4/6
f 367/4/6 366/4/6 368/4/6
f 366/4/6 362/4/6 369/4/6
f 368/4/6 366/4/6 369/4/6
f 359/4/6 367/4/6 370/4/6
f 359/4/6 370/4/6 371/4/6
f 371/4/6 370/4/6 372/4/6
f 369/4/6 362/4/6 373/4/6
f 373/4/6 362/4/6 374/4/6
f 375/4/6 376/4/6 377/4/6
f 377/4/6 376/4/6 378/4/6
f 379/4/6 380/4/6 381/4/6
f 381/4/6 380/4/6 382/4/6
