# MagicaVoxel @ Ephtracy

# group
o 

# material
mtllib frog-0.mtl
usemtl palette

# normals
vn -1 0 0
vn 1 0 0
vn 0 0 1
vn 0 0 -1
vn 0 -1 0
vn 0 1 0

# texcoords
vt 0.470703 0.5
vt 0.478516 0.5
vt 0.482422 0.5
vt 0.486328 0.5
vt 0.490234 0.5

# verts
v -0.7 0 0.4
v -0.7 0 0.2
v -0.7 0 -0.2
v -0.7 0 -0.4
v -0.7 0.1 0.4
v -0.7 0.1 0.2
v -0.7 0.1 -0.2
v -0.7 0.1 -0.4
v -0.6 0 0.5
v -0.6 0 0.4
v -0.6 0 0.2
v -0.6 0 0.1
v -0.6 0 -0.1
v -0.6 0 -0.2
v -0.6 0 -0.4
v -0.6 0 -0.5
v -0.6 0.1 0.5
v -0.6 0.1 0.4
v -0.6 0.1 0.2
v -0.6 0.1 0.1
v -0.6 0.1 -0.1
v -0.6 0.1 -0.2
v -0.6 0.1 -0.4
v -0.6 0.1 -0.5
v -0.5 0.1 0.5
v -0.5 0.1 0.2
v -0.5 0.1 -0.2
v -0.5 0.1 -0.5
v -0.5 0.3 0.5
v -0.5 0.3 0.2
v -0.5 0.3 -0.2
v -0.5 0.3 -0.5
v -0.4 0.1 0.2
v -0.4 0.1 0.1
v -0.4 0.1 -0.1
v -0.4 0.1 -0.2
v -0.4 0.3 0.4
v -0.4 0.3 0.2
v -0.4 0.3 -0.2
v -0.4 0.3 -0.4
v -0.4 0.4 0.1
v -0.4 0.4 -0.1
v -0.4 0.5 0.4
v -0.4 0.5 0.3
v -0.4 0.5 0.1
v -0.4 0.5 -0.1
v -0.4 0.5 -0.3
v -0.4 0.5 -0.4
v -0.4 0.6 0.3
v -0.4 0.6 0.1
v -0.4 0.6 -0.1
v -0.4 0.6 -0.3
v -0.4 0.7 0.4
v -0.4 0.7 -0.4
v -0.3 0.7 0.4
v -0.3 0.7 0.2
v -0.3 0.7 0.1
v -0.3 0.7 -0.1
v -0.3 0.7 -0.2
v -0.3 0.7 -0.4
v -0.3 0.8 0.4
v -0.3 0.8 0.2
v -0.3 0.8 0.1
v -0.3 0.8 -0.1
v -0.3 0.8 -0.2
v -0.3 0.8 -0.4
v -0.3 0.9 0.4
v -0.3 0.9 0.1
v -0.3 0.9 -0.1
v -0.3 0.9 -0.4
v 0.3 0 0.6
v 0.3 0 0.3
v 0.3 0 -0.3
v 0.3 0 -0.6
v 0.3 0.1 0.6
v 0.3 0.1 0.5
v 0.3 0.1 0.4
v 0.3 0.1 0.3
v 0.3 0.1 -0.3
v 0.3 0.1 -0.4
v 0.3 0.1 -0.5
v 0.3 0.1 -0.6
v 0.3 0.3 0.5
v 0.3 0.3 0.4
v 0.3 0.3 -0.4
v 0.3 0.3 -0.5
v -0.3 0 0.5
v -0.3 0 0.1
v -0.3 0 -0.1
v -0.3 0 -0.5
v -0.3 0.1 0.4
v -0.3 0.1 0.1
v -0.3 0.1 -0.1
v -0.3 0.1 -0.4
v -0.3 0.3 0.5
v -0.3 0.3 0.4
v -0.3 0.3 -0.4
v -0.3 0.3 -0.5
v -0.1 0.7 0.4
v -0.1 0.7 0.1
v -0.1 0.7 -0.1
v -0.1 0.7 -0.4
v -0.1 0.9 0.4
v -0.1 0.9 0.1
v -0.1 0.9 -0.1
v -0.1 0.9 -0.4
v 0.4 0.1 0.3
v 0.4 0.1 -0.3
v 0.4 0.3 0.4
v 0.4 0.3 0.3
v 0.4 0.3 -0.3
v 0.4 0.3 -0.4
v 0.4 0.7 0.4
v 0.4 0.7 -0.4
v 0.5 0.1 0.5
v 0.5 0.1 0.3
v 0.5 0.1 -0.3
v 0.5 0.1 -0.5
v 0.5 0.3 0.5
v 0.5 0.3 0.3
v 0.5 0.3 -0.3
v 0.5 0.3 -0.5
v 0.7 0 0.6
v 0.7 0 0.3
v 0.7 0 -0.3
v 0.7 0 -0.6
v 0.7 0.1 0.6
v 0.7 0.1 0.3
v 0.7 0.1 -0.3
v 0.7 0.1 -0.6
v 0.3 0 0.6
v 0.3 0.1 0.6
v 0.7 0 0.6
v 0.7 0.1 0.6
v -0.6 0 0.5
v -0.6 0.1 0.5
v -0.5 0.1 0.5
v -0.5 0.3 0.5
v -0.3 0 0.5
v -0.3 0.3 0.5
v 0.3 0.1 0.5
v 0.3 0.3 0.5
v 0.5 0.1 0.5
v 0.5 0.3 0.5
v -0.7 0 0.4
v -0.7 0.1 0.4
v -0.6 0 0.4
v -0.6 0.1 0.4
v -0.4 0.3 0.4
v -0.4 0.5 0.4
v -0.4 0.7 0.4
v -0.3 0.1 0.4
v -0.3 0.3 0.4
v -0.3 0.4 0.4
v -0.3 0.5 0.4
v -0.3 0.7 0.4
v -0.3 0.8 0.4
v -0.3 0.9 0.4
v -0.2 0.1 0.4
v -0.2 0.4 0.4
v -0.2 0.7 0.4
v -0.2 0.8 0.4
v -0.1 0.7 0.4
v -0.1 0.9 0.4
v 0.3 0.1 0.4
v 0.3 0.3 0.4
v 0.4 0.3 0.4
v 0.4 0.7 0.4
v -0.6 0 -0.1
v -0.6 0.1 -0.1
v -0.4 0.1 -0.1
v -0.3 0 -0.1
v -0.3 0.1 -0.1
v -0.3 0.7 -0.1
v -0.3 0.8 -0.1
v -0.3 0.9 -0.1
v -0.2 0.7 -0.1
v -0.2 0.8 -0.1
v -0.1 0.7 -0.1
v -0.1 0.9 -0.1
v -0.7 0 -0.2
v -0.7 0.1 -0.2
v -0.6 0 -0.2
v -0.6 0.1 -0.2
v -0.5 0.1 -0.2
v -0.5 0.3 -0.2
v -0.4 0.1 -0.2
v -0.4 0.3 -0.2
v 0.3 0 -0.3
v 0.3 0.1 -0.3
v 0.4 0.1 -0.3
v 0.4 0.3 -0.3
v 0.5 0.1 -0.3
v 0.5 0.3 -0.3
v 0.7 0 -0.3
v 0.7 0.1 -0.3
v 0.3 0 0.3
v 0.3 0.1 0.3
v 0.4 0.1 0.3
v 0.4 0.3 0.3
v 0.5 0.1 0.3
v 0.5 0.3 0.3
v 0.7 0 0.3
v 0.7 0.1 0.3
v -0.7 0 0.2
v -0.7 0.1 0.2
v -0.6 0 0.2
v -0.6 0.1 0.2
v -0.5 0.1 0.2
v -0.5 0.3 0.2
v -0.4 0.1 0.2
v -0.4 0.3 0.2
v -0.6 0 0.1
v -0.6 0.1 0.1
v -0.4 0.1 0.1
v -0.3 0 0.1
v -0.3 0.1 0.1
v -0.3 0.7 0.1
v -0.3 0.8 0.1
v -0.3 0.9 0.1
v -0.2 0.7 0.1
v -0.2 0.8 0.1
v -0.1 0.7 0.1
v -0.1 0.9 0.1
v -0.7 0 -0.4
v -0.7 0.1 -0.4
v -0.6 0 -0.4
v -0.6 0.1 -0.4
v -0.4 0.3 -0.4
v -0.4 0.5 -0.4
v -0.4 0.7 -0.4
v -0.3 0.1 -0.4
v -0.3 0.3 -0.4
v -0.3 0.4 -0.4
v -0.3 0.5 -0.4
v -0.3 0.7 -0.4
v -0.3 0.8 -0.4
v -0.3 0.9 -0.4
v -0.2 0.1 -0.4
v -0.2 0.4 -0.4
v -0.2 0.7 -0.4
v -0.2 0.8 -0.4
v -0.1 0.7 -0.4
v -0.1 0.9 -0.4
v 0.3 0.1 -0.4
v 0.3 0.3 -0.4
v 0.4 0.3 -0.4
v 0.4 0.7 -0.4
v -0.6 0 -0.5
v -0.6 0.1 -0.5
v -0.5 0.1 -0.5
v -0.5 0.3 -0.5
v -0.3 0 -0.5
v -0.3 0.3 -0.5
v 0.3 0.1 -0.5
v 0.3 0.3 -0.5
v 0.5 0.1 -0.5
v 0.5 0.3 -0.5
v 0.3 0 -0.6
v 0.3 0.1 -0.6
v 0.7 0 -0.6
v 0.7 0.1 -0.6
v 0.3 0 0.6
v 0.7 0 0.6
v -0.6 0 0.5
v -0.3 0 0.5
v -0.7 0 0.4
v -0.6 0 0.4
v 0.3 0 0.3
v 0.7 0 0.3
v -0.7 0 0.2
v -0.6 0 0.2
v -0.6 0 0.1
v -0.3 0 0.1
v -0.6 0 -0.1
v -0.3 0 -0.1
v -0.7 0 -0.2
v -0.6 0 -0.2
v 0.3 0 -0.3
v 0.7 0 -0.3
v -0.7 0 -0.4
v -0.6 0 -0.4
v -0.6 0 -0.5
v -0.3 0 -0.5
v 0.3 0 -0.6
v 0.7 0 -0.6
v -0.3 0.1 0.4
v -0.2 0.1 0.4
v 0.3 0.1 0.4
v -0.2 0.1 0.3
v 0.3 0.1 0.3
v 0.4 0.1 0.3
v -0.4 0.1 0.1
v -0.3 0.1 0.1
v -0.4 0.1 -0.1
v -0.3 0.1 -0.1
v -0.2 0.1 -0.3
v 0.3 0.1 -0.3
v 0.4 0.1 -0.3
v -0.3 0.1 -0.4
v -0.2 0.1 -0.4
v 0.3 0.1 -0.4
v 0.3 0.1 0.6
v 0.7 0.1 0.6
v -0.6 0.1 0.5
v -0.5 0.1 0.5
v 0.3 0.1 0.5
v 0.5 0.1 0.5
v -0.7 0.1 0.4
v -0.6 0.1 0.4
v 0.5 0.1 0.3
v 0.7 0.1 0.3
v -0.7 0.1 0.2
v -0.6 0.1 0.2
v -0.5 0.1 0.2
v -0.4 0.1 0.2
v -0.6 0.1 0.1
v -0.4 0.1 0.1
v -0.6 0.1 -0.1
v -0.4 0.1 -0.1
v -0.7 0.1 -0.2
v -0.6 0.1 -0.2
v -0.5 0.1 -0.2
v -0.4 0.1 -0.2
v 0.5 0.1 -0.3
v 0.7 0.1 -0.3
v -0.7 0.1 -0.4
v -0.6 0.1 -0.4
v -0.6 0.1 -0.5
v -0.5 0.1 -0.5
v 0.3 0.1 -0.5
v 0.5 0.1 -0.5
v 0.3 0.1 -0.6
v 0.7 0.1 -0.6
v -0.5 0.3 0.5
v -0.3 0.3 0.5
v 0.3 0.3 0.5
v 0.5 0.3 0.5
v -0.4 0.3 0.4
v -0.3 0.3 0.4
v 0.3 0.3 0.4
v 0.4 0.3 0.4
v 0.4 0.3 0.3
v 0.5 0.3 0.3
v -0.5 0.3 0.2
v -0.4 0.3 0.2
v -0.5 0.3 -0.2
v -0.4 0.3 -0.2
v 0.4 0.3 -0.3
v 0.5 0.3 -0.3
v -0.4 0.3 -0.4
v -0.3 0.3 -0.4
v 0.3 0.3 -0.4
v 0.4 0.3 -0.4
v -0.5 0.3 -0.5
v -0.3 0.3 -0.5
v 0.3 0.3 -0.5
v 0.5 0.3 -0.5
v -0.4 0.7 0.4
v -0.3 0.7 0.4
v -0.1 0.7 0.4
v 0.4 0.7 0.4
v -0.3 0.7 0.2
v -0.3 0.7 0.1
v -0.2 0.7 0.1
v -0.1 0.7 0.1
v -0.3 0.7 -0.1
v -0.2 0.7 -0.1
v -0.1 0.7 -0.1
v -0.3 0.7 -0.2
v -0.4 0.7 -0.4
v -0.3 0.7 -0.4
v -0.1 0.7 -0.4
v 0.4 0.7 -0.4
v -0.3 0.9 0.4
v -0.1 0.9 0.4
v -0.3 0.9 0.1
v -0.1 0.9 0.1
v -0.3 0.9 -0.1
v -0.1 0.9 -0.1
v -0.3 0.9 -0.4
v -0.1 0.9 -0.4

# faces
f 5/1/1 2/1/1 1/1/1
f 6/1/1 2/1/1 5/1/1
f 7/1/1 4/1/1 3/1/1
f 8/1/1 4/1/1 7/1/1
f 17/1/1 10/1/1 9/1/1
f 18/1/1 10/1/1 17/1/1
f 19/1/1 12/1/1 11/1/1
f 20/1/1 12/1/1 19/1/1
f 21/1/1 14/1/1 13/1/1
f 22/1/1 14/1/1 21/1/1
f 23/1/1 16/1/1 15/1/1
f 24/1/1 16/1/1 23/1/1
f 29/1/1 26/1/1 25/1/1
f 30/1/1 26/1/1 29/1/1
f 31/1/1 28/1/1 27/1/1
f 32/1/1 28/1/1 31/1/1
f 38/2/1 34/2/1 33/2/1
f 38/2/1 36/2/1 35/2/1
f 38/2/1 35/2/1 34/2/1
f 39/2/1 36/2/1 38/2/1
f 41/2/1 38/2/1 37/2/1
f 41/2/1 40/2/1 39/2/1
f 41/2/1 39/2/1 38/2/1
f 42/2/1 40/2/1 41/2/1
f 43/2/1 41/2/1 37/2/1
f 44/2/1 41/2/1 43/2/1
f 45/3/1 42/3/1 41/3/1
f 45/2/1 41/2/1 44/2/1
f 46/2/1 40/2/1 42/2/1
f 46/3/1 42/3/1 45/3/1
f 47/2/1 40/2/1 46/2/1
f 48/2/1 40/2/1 47/2/1
f 49/3/1 45/3/1 44/3/1
f 49/1/1 44/1/1 43/1/1
f 50/1/1 46/1/1 45/1/1
f 50/3/1 45/3/1 49/3/1
f 51/3/1 47/3/1 46/3/1
f 51/1/1 46/1/1 50/1/1
f 52/1/1 48/1/1 47/1/1
f 52/3/1 47/3/1 51/3/1
f 53/1/1 51/1/1 50/1/1
f 53/1/1 49/1/1 43/1/1
f 53/1/1 52/1/1 51/1/1
f 53/1/1 50/1/1 49/1/1
f 54/1/1 48/1/1 52/1/1
f 54/1/1 52/1/1 53/1/1
f 61/4/1 56/4/1 55/4/1
f 62/5/1 57/5/1 56/5/1
f 62/4/1 56/4/1 61/4/1
f 63/5/1 57/5/1 62/5/1
f 64/5/1 59/5/1 58/5/1
f 65/4/1 60/4/1 59/4/1
f 65/5/1 59/5/1 64/5/1
f 66/4/1 60/4/1 65/4/1
f 67/1/1 63/1/1 62/1/1
f 67/1/1 62/1/1 61/1/1
f 68/1/1 63/1/1 67/1/1
f 69/1/1 66/1/1 65/1/1
f 69/1/1 65/1/1 64/1/1
f 70/1/1 66/1/1 69/1/1
f 75/1/1 72/1/1 71/1/1
f 76/1/1 72/1/1 75/1/1
f 77/1/1 72/1/1 76/1/1
f 78/1/1 72/1/1 77/1/1
f 79/1/1 74/1/1 73/1/1
f 80/1/1 74/1/1 79/1/1
f 81/1/1 74/1/1 80/1/1
f 82/1/1 74/1/1 81/1/1
f 83/1/1 77/1/1 76/1/1
f 84/1/1 77/1/1 83/1/1
f 85/1/1 81/1/1 80/1/1
f 86/1/1 81/1/1 85/1/1
f 87/1/2 88/1/2 91/1/2
f 91/1/2 88/1/2 92/1/2
f 89/1/2 90/1/2 93/1/2
f 93/1/2 90/1/2 94/1/2
f 87/1/2 91/1/2 95/1/2
f 95/1/2 91/1/2 96/1/2
f 94/1/2 90/1/2 97/1/2
f 97/1/2 90/1/2 98/1/2
f 99/1/2 100/1/2 103/1/2
f 103/1/2 100/1/2 104/1/2
f 101/1/2 102/1/2 105/1/2
f 105/1/2 102/1/2 106/1/2
f 107/1/2 108/1/2 110/1/2
f 110/1/2 108/1/2 111/1/2
f 109/1/2 110/1/2 113/1/2
f 111/1/2 112/1/2 113/1/2
f 110/1/2 111/1/2 113/1/2
f 113/1/2 112/1/2 114/1/2
f 115/1/2 116/1/2 119/1/2
f 119/1/2 116/1/2 120/1/2
f 117/1/2 118/1/2 121/1/2
f 121/1/2 118/1/2 122/1/2
f 123/1/2 124/1/2 127/1/2
f 127/1/2 124/1/2 128/1/2
f 125/1/2 126/1/2 129/1/2
f 129/1/2 126/1/2 130/1/2
f 133/1/3 132/1/3 131/1/3
f 134/1/3 132/1/3 133/1/3
f 137/1/3 136/1/3 135/1/3
f 139/1/3 137/1/3 135/1/3
f 139/1/3 138/1/3 137/1/3
f 140/1/3 138/1/3 139/1/3
f 143/1/3 142/1/3 141/1/3
f 144/1/3 142/1/3 143/1/3
f 147/1/3 146/1/3 145/1/3
f 148/1/3 146/1/3 147/1/3
f 153/2/3 150/2/3 149/2/3
f 154/2/3 150/2/3 153/2/3
f 155/1/3 151/1/3 150/1/3
f 155/2/3 150/2/3 154/2/3
f 156/1/3 151/1/3 155/1/3
f 159/2/3 154/2/3 153/2/3
f 159/2/3 153/2/3 152/2/3
f 160/1/3 155/1/3 154/1/3
f 160/2/3 154/2/3 159/2/3
f 160/1/3 156/1/3 155/1/3
f 161/4/3 157/4/3 156/4/3
f 161/1/3 156/1/3 160/1/3
f 162/1/3 158/1/3 157/1/3
f 162/4/3 157/4/3 161/4/3
f 163/1/3 161/1/3 160/1/3
f 163/1/3 160/1/3 159/1/3
f 163/1/3 162/1/3 161/1/3
f 164/1/3 158/1/3 162/1/3
f 164/1/3 162/1/3 163/1/3
f 165/1/3 163/1/3 159/1/3
f 166/1/3 163/1/3 165/1/3
f 167/1/3 163/1/3 166/1/3
f 168/1/3 163/1/3 167/1/3
f 171/1/3 170/1/3 169/1/3
f 172/1/3 171/1/3 169/1/3
f 173/1/3 171/1/3 172/1/3
f 177/5/3 175/5/3 174/5/3
f 178/1/3 176/1/3 175/1/3
f 178/5/3 175/5/3 177/5/3
f 179/1/3 178/1/3 177/1/3
f 180/1/3 176/1/3 178/1/3
f 180/1/3 178/1/3 179/1/3
f 183/1/3 182/1/3 181/1/3
f 184/1/3 182/1/3 183/1/3
f 187/1/3 186/1/3 185/1/3
f 188/1/3 186/1/3 187/1/3
f 191/1/3 190/1/3 189/1/3
f 193/1/3 191/1/3 189/1/3
f 193/1/3 192/1/3 191/1/3
f 194/1/3 192/1/3 193/1/3
f 195/1/3 193/1/3 189/1/3
f 196/1/3 193/1/3 195/1/3
f 197/1/4 198/1/4 199/1/4
f 197/1/4 199/1/4 201/1/4
f 199/1/4 200/1/4 201/1/4
f 201/1/4 200/1/4 202/1/4
f 197/1/4 201/1/4 203/1/4
f 203/1/4 201/1/4 204/1/4
f 205/1/4 206/1/4 207/1/4
f 207/1/4 206/1/4 208/1/4
f 209/1/4 210/1/4 211/1/4
f 211/1/4 210/1/4 212/1/4
f 213/1/4 214/1/4 215/1/4
f 213/1/4 215/1/4 216/1/4
f 216/1/4 215/1/4 217/1/4
f 218/5/4 219/5/4 221/5/4
f 219/1/4 220/1/4 222/1/4
f 221/5/4 219/5/4 222/5/4
f 221/1/4 222/1/4 223/1/4
f 222/1/4 220/1/4 224/1/4
f 223/1/4 222/1/4 224/1/4
f 225/1/4 226/1/4 227/1/4
f 227/1/4 226/1/4 228/1/4
f 229/2/4 230/2/4 233/2/4
f 233/2/4 230/2/4 234/2/4
f 230/1/4 231/1/4 235/1/4
f 234/2/4 230/2/4 235/2/4
f 235/1/4 231/1/4 236/1/4
f 233/2/4 234/2/4 239/2/4
f 232/2/4 233/2/4 239/2/4
f 234/1/4 235/1/4 240/1/4
f 239/2/4 234/2/4 240/2/4
f 235/1/4 236/1/4 240/1/4
f 236/4/4 237/4/4 241/4/4
f 240/1/4 236/1/4 241/1/4
f 237/1/4 238/1/4 242/1/4
f 241/4/4 237/4/4 242/4/4
f 240/1/4 241/1/4 243/1/4
f 239/1/4 240/1/4 243/1/4
f 241/1/4 242/1/4 243/1/4
f 242/1/4 238/1/4 244/1/4
f 243/1/4 242/1/4 244/1/4
f 239/1/4 243/1/4 245/1/4
f 245/1/4 243/1/4 246/1/4
f 246/1/4 243/1/4 247/1/4
f 247/1/4 243/1/4 248/1/4
f 249/1/4 250/1/4 251/1/4
f 249/1/4 251/1/4 253/1/4
f 251/1/4 252/1/4 253/1/4
f 253/1/4 252/1/4 254/1/4
f 255/1/4 256/1/4 257/1/4
f 257/1/4 256/1/4 258/1/4
f 259/1/4 260/1/4 261/1/4
f 261/1/4 260/1/4 262/1/4
f 268/1/5 266/1/5 265/1/5
f 269/1/5 264/1/5 263/1/5
f 270/1/5 264/1/5 269/1/5
f 271/1/5 268/1/5 267/1/5
f 272/1/5 266/1/5 268/1/5
f 272/1/5 268/1/5 271/1/5
f 273/1/5 266/1/5 272/1/5
f 274/1/5 266/1/5 273/1/5
f 278/1/5 276/1/5 275/1/5
f 281/1/5 278/1/5 277/1/5
f 282/1/5 276/1/5 278/1/5
f 282/1/5 278/1/5 281/1/5
f 283/1/5 276/1/5 282/1/5
f 284/1/5 276/1/5 283/1/5
f 285/1/5 280/1/5 279/1/5
f 286/1/5 280/1/5 285/1/5
f 290/2/5 288/2/5 287/2/5
f 290/1/5 289/1/5 288/1/5
f 291/1/5 289/1/5 290/1/5
f 294/2/5 290/2/5 287/2/5
f 294/2/5 291/2/5 290/2/5
f 295/2/5 294/2/5 293/2/5
f 296/2/5 291/2/5 294/2/5
f 296/2/5 294/2/5 295/2/5
f 297/2/5 291/2/5 296/2/5
f 298/1/5 292/1/5 291/1/5
f 298/2/5 291/2/5 297/2/5
f 299/1/5 292/1/5 298/1/5
f 300/2/5 297/2/5 296/2/5
f 301/1/5 298/1/5 297/1/5
f 301/2/5 297/2/5 300/2/5
f 302/1/5 298/1/5 301/1/5
f 303/1/6 304/1/6 307/1/6
f 307/1/6 304/1/6 308/1/6
f 305/1/6 306/1/6 310/1/6
f 308/1/6 304/1/6 311/1/6
f 311/1/6 304/1/6 312/1/6
f 309/1/6 310/1/6 313/1/6
f 310/1/6 306/1/6 314/1/6
f 313/1/6 310/1/6 314/1/6
f 314/1/6 306/1/6 315/1/6
f 315/1/6 316/1/6 317/1/6
f 314/1/6 315/1/6 317/1/6
f 317/1/6 316/1/6 318/1/6
f 319/1/6 320/1/6 322/1/6
f 322/1/6 320/1/6 323/1/6
f 323/1/6 320/1/6 324/1/6
f 322/1/6 323/1/6 327/1/6
f 321/1/6 322/1/6 327/1/6
f 327/1/6 323/1/6 328/1/6
f 328/1/6 323/1/6 329/1/6
f 329/1/6 323/1/6 330/1/6
f 325/1/6 326/1/6 332/1/6
f 331/1/6 332/1/6 333/1/6
f 332/1/6 326/1/6 334/1/6
f 333/1/6 332/1/6 334/1/6
f 335/1/6 336/1/6 339/1/6
f 339/1/6 336/1/6 340/1/6
f 337/1/6 338/1/6 341/1/6
f 341/1/6 338/1/6 342/1/6
f 342/1/6 338/1/6 343/1/6
f 343/1/6 338/1/6 344/1/6
f 335/1/6 339/1/6 345/1/6
f 345/1/6 339/1/6 346/1/6
f 347/1/6 348/1/6 351/1/6
f 349/1/6 350/1/6 354/1/6
f 351/1/6 352/1/6 355/1/6
f 347/1/6 351/1/6 355/1/6
f 355/1/6 352/1/6 356/1/6
f 353/1/6 354/1/6 357/1/6
f 354/1/6 350/1/6 358/1/6
f 357/1/6 354/1/6 358/1/6
f 359/1/6 360/1/6 363/1/6
f 359/1/6 363/1/6 364/1/6
f 361/1/6 362/1/6 366/1/6
f 364/1/6 365/1/6 367/1/6
f 365/1/6 366/1/6 367/1/6
f 359/1/6 364/1/6 367/1/6
f 367/1/6 366/1/6 368/1/6
f 366/1/6 362/1/6 369/1/6
f 368/1/6 366/1/6 369/1/6
f 359/1/6 367/1/6 370/1/6
f 359/1/6 370/1/6 371/1/6
f 371/1/6 370/1/6 372/1/6
f 369/1/6 362/1/6 373/1/6
f 373/1/6 362/1/6 374/1/6
f 375/1/6 376/1/6 377/1/6
f 377/1/6 376/1/6 378/1/6
f 379/1/6 380/1/6 381/1/6
f 381/1/6 380/1/6 382/1/6
