# MagicaVoxel @ Ephtracy

# group
o 

# material
mtllib nutria.mtl
usemtl palette

# normals
vn -1 0 0
vn 1 0 0
vn 0 0 1
vn 0 0 -1
vn 0 -1 0
vn 0 1 0

# texcoords
vt 0.533203 0.5
vt 0.537109 0.5
vt 0.541016 0.5
vt 0.544922 0.5
vt 0.548828 0.5
vt 0.552734 0.5

# verts
v -0.5 0.1 0.4
v -0.5 0.1 0.2
v -0.5 0.6 0.4
v -0.5 0.6 0.2
v -0.4 0.2 -0.2
v -0.4 0.2 -0.7
v -0.4 0.3 -0.5
v -0.4 0.3 -0.6
v -0.4 0.3 -0.7
v -0.4 0.4 -0.4
v -0.4 0.4 -0.5
v -0.4 0.4 -0.6
v -0.4 0.4 -0.7
v -0.4 0.5 -0.2
v -0.4 0.5 -0.4
v -0.3 0 0.5
v -0.3 0 -0.9
v -0.3 0.1 0.5
v -0.3 0.1 0.4
v -0.3 0.1 0.2
v -0.3 0.1 0.1
v -0.3 0.1 -0.1
v -0.3 0.1 -0.8
v -0.3 0.1 -0.9
v -0.3 0.2 0.5
v -0.3 0.2 0.4
v -0.3 0.2 0.2
v -0.3 0.2 0.1
v -0.3 0.2 -0.2
v -0.3 0.2 -0.7
v -0.3 0.3 0.5
v -0.3 0.3 0.4
v -0.3 0.3 0
v -0.3 0.3 -0.1
v -0.3 0.3 -0.7
v -0.3 0.4 0.5
v -0.3 0.4 0.4
v -0.3 0.4 0.2
v -0.3 0.4 0
v -0.3 0.4 -0.2
v -0.3 0.4 -0.7
v -0.3 0.4 -0.8
v -0.3 0.4 -0.9
v -0.2 0.4 -0.5
v -0.2 0.4 -0.6
v -0.2 0.4 -0.7
v -0.2 0.4 -0.8
v -0.2 0.4 -0.9
v -0.2 0.5 -0.5
v -0.2 0.5 -0.6
v -0.2 0.5 -0.7
v -0.2 0.5 -0.8
v -0.2 0.6 -0.5
v -0.2 0.6 -0.6
v -0.2 0.6 -0.7
v -0.2 0.6 -0.8
v -0.2 0.6 -0.9
v -0.2 0.7 -0.5
v -0.2 0.7 -0.6
v -0.2 0.7 -0.7
v -0.2 0.7 -0.8
v -0.2 0.7 -0.9
v -0.2 0.8 -0.5
v -0.2 0.8 -0.7
v -0.2 0.8 -0.8
v -0.2 0.8 -0.9
v -0.1 0 0.9
v -0.1 0 0.5
v -0.1 0.1 0.9
v -0.1 0.1 0.7
v -0.1 0.1 0.5
v -0.1 0.2 0.7
v -0.1 0.2 0.5
v -0.1 0.4 -0.4
v -0.1 0.4 -0.5
v -0.1 0.5 -0.4
v -0.1 0.5 -0.5
v -0.1 0.6 -0.4
v -0.1 0.6 -0.5
v 0.2 0.1 0.7
v 0.2 0.1 0.5
v 0.2 0.3 0.5
v 0.2 0.4 0.5
v 0.2 0.4 -0.2
v 0.2 0.4 -0.4
v 0.2 0.5 -0.2
v 0.2 0.5 -0.4
v 0.2 0.6 0.7
v 0.2 0.6 0.5
v -0.3 0.4 0.4
v -0.3 0.4 0.2
v -0.3 0.6 0.4
v -0.3 0.6 0.2
v -0.1 0.4 -0.2
v -0.1 0.4 -0.4
v -0.1 0.5 -0.2
v -0.1 0.5 -0.4
v 0.1 0 0.9
v 0.1 0 0.5
v 0.1 0.1 0.9
v 0.1 0.1 0.7
v 0.1 0.1 0.5
v 0.1 0.2 0.7
v 0.1 0.2 0.5
v 0.3 0.4 -0.4
v 0.3 0.4 -0.9
v 0.3 0.5 -0.4
v 0.3 0.6 -0.4
v 0.3 0.6 -0.5
v 0.3 0.6 -0.6
v 0.3 0.7 -0.5
v 0.3 0.7 -0.6
v 0.3 0.7 -0.7
v 0.3 0.7 -0.8
v 0.3 0.7 -0.9
v 0.3 0.8 -0.5
v 0.3 0.8 -0.7
v 0.3 0.8 -0.8
v 0.3 0.8 -0.9
v 0.4 0 0.5
v 0.4 0 -0.9
v 0.4 0.1 0.7
v 0.4 0.1 0.5
v 0.4 0.1 0.1
v 0.4 0.1 0
v 0.4 0.1 -0.2
v 0.4 0.1 -0.9
v 0.4 0.2 0.5
v 0.4 0.2 0.4
v 0.4 0.2 0.3
v 0.4 0.2 0.2
v 0.4 0.2 -0.2
v 0.4 0.2 -0.7
v 0.4 0.3 0.5
v 0.4 0.3 0.4
v 0.4 0.3 0.2
v 0.4 0.3 0.1
v 0.4 0.3 0
v 0.4 0.3 -0.1
v 0.4 0.3 -0.2
v 0.4 0.3 -0.7
v 0.4 0.4 0.5
v 0.4 0.4 0.3
v 0.4 0.4 0.1
v 0.4 0.4 -0.1
v 0.4 0.4 -0.2
v 0.4 0.4 -0.7
v 0.4 0.4 -0.9
v 0.4 0.6 0.7
v 0.4 0.6 0.5
v 0.5 0.2 -0.2
v 0.5 0.2 -0.7
v 0.5 0.3 -0.4
v 0.5 0.3 -0.7
v 0.5 0.4 -0.4
v 0.5 0.4 -0.7
v 0.5 0.5 -0.2
v 0.5 0.5 -0.4
v -0.1 0 0.9
v -0.1 0.1 0.9
v 0.1 0 0.9
v 0.1 0.1 0.9
v -0.1 0.1 0.7
v -0.1 0.2 0.7
v 0.1 0.1 0.7
v 0.1 0.2 0.7
v 0.2 0.1 0.7
v 0.2 0.6 0.7
v 0.4 0.1 0.7
v 0.4 0.6 0.7
v -0.3 0 0.5
v -0.3 0.1 0.5
v -0.3 0.2 0.5
v -0.3 0.3 0.5
v -0.3 0.4 0.5
v -0.2 0.1 0.5
v -0.2 0.2 0.5
v -0.1 0 0.5
v -0.1 0.1 0.5
v -0.1 0.2 0.5
v 0 0.3 0.5
v 0 0.4 0.5
v 0.1 0 0.5
v 0.1 0.1 0.5
v 0.1 0.2 0.5
v 0.1 0.3 0.5
v 0.1 0.4 0.5
v 0.2 0.1 0.5
v 0.2 0.3 0.5
v 0.2 0.4 0.5
v 0.4 0 0.5
v 0.4 0.1 0.5
v -0.5 0.1 0.4
v -0.5 0.6 0.4
v -0.3 0.1 0.4
v -0.3 0.2 0.4
v -0.3 0.3 0.4
v -0.3 0.4 0.4
v -0.3 0.6 0.4
v -0.4 0.2 -0.2
v -0.4 0.5 -0.2
v -0.3 0.2 -0.2
v -0.3 0.4 -0.2
v -0.1 0.4 -0.2
v -0.1 0.5 -0.2
v 0.2 0.4 -0.2
v 0.2 0.5 -0.2
v 0.4 0.2 -0.2
v 0.4 0.3 -0.2
v 0.4 0.4 -0.2
v 0.5 0.2 -0.2
v 0.5 0.5 -0.2
v -0.1 0.4 -0.4
v -0.1 0.5 -0.4
v -0.1 0.6 -0.4
v 0 0.5 -0.4
v 0 0.6 -0.4
v 0.2 0.4 -0.4
v 0.2 0.5 -0.4
v 0.2 0.6 -0.4
v 0.3 0.5 -0.4
v 0.3 0.6 -0.4
v -0.2 0.4 -0.5
v -0.2 0.5 -0.5
v -0.2 0.6 -0.5
v -0.2 0.7 -0.5
v -0.2 0.8 -0.5
v -0.1 0.4 -0.5
v -0.1 0.5 -0.5
v -0.1 0.6 -0.5
v -0.1 0.7 -0.5
v 0 0.6 -0.5
v 0 0.7 -0.5
v 0 0.8 -0.5
v 0.2 0.6 -0.5
v 0.2 0.7 -0.5
v 0.2 0.8 -0.5
v 0.3 0.6 -0.5
v 0.3 0.7 -0.5
v 0.3 0.8 -0.5
v 0.2 0.4 0.5
v 0.2 0.6 0.5
v 0.4 0.4 0.5
v 0.4 0.6 0.5
v -0.5 0.1 0.2
v -0.5 0.6 0.2
v -0.3 0.1 0.2
v -0.3 0.2 0.2
v -0.3 0.4 0.2
v -0.3 0.6 0.2
v -0.4 0.4 -0.4
v -0.4 0.5 -0.4
v -0.3 0.4 -0.4
v -0.1 0.4 -0.4
v -0.1 0.5 -0.4
v 0.3 0.4 -0.4
v 0.3 0.5 -0.4
v 0.5 0.4 -0.4
v 0.5 0.5 -0.4
v -0.4 0.2 -0.7
v -0.4 0.3 -0.7
v -0.4 0.4 -0.7
v -0.3 0.2 -0.7
v -0.3 0.3 -0.7
v -0.3 0.4 -0.7
v 0.4 0.2 -0.7
v 0.4 0.3 -0.7
v 0.4 0.4 -0.7
v 0.5 0.2 -0.7
v 0.5 0.3 -0.7
v 0.5 0.4 -0.7
v -0.3 0 -0.9
v -0.3 0.1 -0.9
v -0.3 0.4 -0.9
v -0.2 0.1 -0.9
v -0.2 0.4 -0.9
v -0.2 0.6 -0.9
v -0.2 0.7 -0.9
v -0.2 0.8 -0.9
v -0.1 0.4 -0.9
v -0.1 0.6 -0.9
v -0.1 0.7 -0.9
v -0.1 0.8 -0.9
v 0 0.7 -0.9
v 0 0.8 -0.9
v 0.2 0.7 -0.9
v 0.2 0.8 -0.9
v 0.3 0.4 -0.9
v 0.3 0.7 -0.9
v 0.3 0.8 -0.9
v 0.4 0 -0.9
v 0.4 0.1 -0.9
v 0.4 0.4 -0.9
v -0.1 0 0.9
v 0.1 0 0.9
v -0.3 0 0.5
v -0.1 0 0.5
v 0.1 0 0.5
v 0.4 0 0.5
v -0.3 0 -0.9
v 0.4 0 -0.9
v 0.2 0.1 0.7
v 0.4 0.1 0.7
v 0.2 0.1 0.5
v 0.4 0.1 0.5
v -0.5 0.1 0.4
v -0.3 0.1 0.4
v -0.5 0.1 0.2
v -0.3 0.1 0.2
v -0.4 0.2 -0.2
v -0.3 0.2 -0.2
v 0.4 0.2 -0.2
v 0.5 0.2 -0.2
v -0.4 0.2 -0.7
v -0.3 0.2 -0.7
v 0.4 0.2 -0.7
v 0.5 0.2 -0.7
v -0.1 0.1 0.9
v 0.1 0.1 0.9
v -0.1 0.1 0.7
v 0.1 0.1 0.7
v -0.1 0.2 0.7
v 0.1 0.2 0.7
v -0.1 0.2 0.5
v 0.1 0.2 0.5
v -0.3 0.4 0.5
v 0 0.4 0.5
v 0.1 0.4 0.5
v 0.2 0.4 0.5
v 0.4 0.4 0.5
v -0.3 0.4 0.4
v 0 0.4 0.4
v 0.1 0.4 0.4
v 0.2 0.4 0.4
v -0.2 0.4 0.3
v -0.1 0.4 0.3
v 0.1 0.4 0.3
v 0.2 0.4 0.3
v 0.3 0.4 0.3
v 0.4 0.4 0.3
v -0.3 0.4 0.2
v -0.2 0.4 0.1
v -0.1 0.4 0.1
v 0.3 0.4 0.1
v 0.4 0.4 0.1
v -0.3 0.4 0
v -0.2 0.4 0
v -0.1 0.4 0
v 0 0.4 0
v 0.2 0.4 0
v 0.3 0.4 0
v -0.2 0.4 -0.1
v -0.1 0.4 -0.1
v 0.3 0.4 -0.1
v 0.4 0.4 -0.1
v -0.3 0.4 -0.2
v -0.1 0.4 -0.2
v 0 0.4 -0.2
v 0.2 0.4 -0.2
v 0.4 0.4 -0.2
v -0.4 0.4 -0.4
v -0.3 0.4 -0.4
v -0.1 0.4 -0.4
v 0.2 0.4 -0.4
v 0.3 0.4 -0.4
v 0.5 0.4 -0.4
v -0.4 0.4 -0.5
v -0.3 0.4 -0.5
v -0.2 0.4 -0.5
v -0.1 0.4 -0.5
v -0.4 0.4 -0.6
v -0.3 0.4 -0.6
v -0.2 0.4 -0.6
v -0.4 0.4 -0.7
v -0.3 0.4 -0.7
v -0.2 0.4 -0.7
v 0.4 0.4 -0.7
v 0.5 0.4 -0.7
v -0.3 0.4 -0.8
v -0.2 0.4 -0.8
v -0.3 0.4 -0.9
v -0.2 0.4 -0.9
v 0.3 0.4 -0.9
v 0.4 0.4 -0.9
v -0.4 0.5 -0.2
v -0.1 0.5 -0.2
v 0.2 0.5 -0.2
v 0.5 0.5 -0.2
v -0.4 0.5 -0.4
v -0.1 0.5 -0.4
v 0.2 0.5 -0.4
v 0.3 0.5 -0.4
v 0.5 0.5 -0.4
v 0.2 0.6 0.7
v 0.4 0.6 0.7
v 0.2 0.6 0.5
v 0.4 0.6 0.5
v -0.5 0.6 0.4
v -0.3 0.6 0.4
v -0.5 0.6 0.2
v -0.3 0.6 0.2
v -0.1 0.6 -0.4
v 0 0.6 -0.4
v 0.2 0.6 -0.4
v 0.3 0.6 -0.4
v -0.1 0.6 -0.5
v 0 0.6 -0.5
v 0.2 0.6 -0.5
v 0.3 0.6 -0.5
v -0.2 0.8 -0.5
v 0 0.8 -0.5
v 0.2 0.8 -0.5
v 0.3 0.8 -0.5
v -0.1 0.8 -0.6
v 0 0.8 -0.6
v 0.2 0.8 -0.6
v -0.2 0.8 -0.7
v -0.1 0.8 -0.7
v 0.2 0.8 -0.7
v 0.3 0.8 -0.7
v -0.2 0.8 -0.8
v -0.1 0.8 -0.8
v 0 0.8 -0.8
v 0.2 0.8 -0.8
v 0.3 0.8 -0.8
v -0.2 0.8 -0.9
v -0.1 0.8 -0.9
v 0 0.8 -0.9
v 0.2 0.8 -0.9
v 0.3 0.8 -0.9

# faces
f 3/4/1 2/4/1 1/4/1
f 4/4/1 2/4/1 3/4/1
f 7/4/1 6/4/1 5/4/1
f 8/4/1 6/4/1 7/4/1
f 9/4/1 6/4/1 8/4/1
f 10/4/1 7/4/1 5/4/1
f 11/2/1 8/2/1 7/2/1
f 11/4/1 7/4/1 10/4/1
f 12/1/1 9/1/1 8/1/1
f 12/2/1 8/2/1 11/2/1
f 13/1/1 9/1/1 12/1/1
f 14/4/1 10/4/1 5/4/1
f 15/4/1 10/4/1 14/4/1
f 18/5/1 17/5/1 16/5/1
f 19/5/1 17/5/1 18/5/1
f 20/5/1 17/5/1 19/5/1
f 21/5/1 17/5/1 20/5/1
f 22/5/1 17/5/1 21/5/1
f 23/5/1 17/5/1 22/5/1
f 24/5/1 17/5/1 23/5/1
f 25/1/1 19/1/1 18/1/1
f 26/1/1 19/1/1 25/1/1
f 27/2/1 21/2/1 20/2/1
f 28/1/1 22/1/1 21/1/1
f 28/2/1 21/2/1 27/2/1
f 29/2/1 23/2/1 22/2/1
f 30/2/1 23/2/1 29/2/1
f 31/2/1 26/2/1 25/2/1
f 32/2/1 26/2/1 31/2/1
f 33/1/1 22/1/1 28/1/1
f 33/1/1 28/1/1 27/1/1
f 34/2/1 29/2/1 22/2/1
f 34/1/1 22/1/1 33/1/1
f 35/2/1 23/2/1 30/2/1
f 36/1/1 32/1/1 31/1/1
f 37/1/1 32/1/1 36/1/1
f 38/1/1 33/1/1 27/1/1
f 39/2/1 34/2/1 33/2/1
f 39/1/1 33/1/1 38/1/1
f 40/2/1 29/2/1 34/2/1
f 40/2/1 34/2/1 39/2/1
f 41/2/1 23/2/1 35/2/1
f 42/3/1 24/3/1 23/3/1
f 42/2/1 23/2/1 41/2/1
f 43/3/1 24/3/1 42/3/1
f 49/3/1 45/3/1 44/3/1
f 50/2/1 46/2/1 45/2/1
f 50/3/1 45/3/1 49/3/1
f 51/3/1 48/3/1 47/3/1
f 51/2/1 46/2/1 50/2/1
f 51/3/1 47/3/1 46/3/1
f 52/3/1 48/3/1 51/3/1
f 53/1/1 50/1/1 49/1/1
f 54/2/1 51/2/1 50/2/1
f 54/1/1 50/1/1 53/1/1
f 55/1/1 52/1/1 51/1/1
f 55/2/1 51/2/1 54/2/1
f 56/3/1 48/3/1 52/3/1
f 56/1/1 52/1/1 55/1/1
f 57/3/1 48/3/1 56/3/1
f 58/2/1 54/2/1 53/2/1
f 59/3/1 55/3/1 54/3/1
f 59/2/1 54/2/1 58/2/1
f 60/2/1 56/2/1 55/2/1
f 60/3/1 55/3/1 59/3/1
f 60/2/1 57/2/1 56/2/1
f 61/2/1 57/2/1 60/2/1
f 62/2/1 57/2/1 61/2/1
f 63/1/1 59/1/1 58/1/1
f 63/1/1 60/1/1 59/1/1
f 64/2/1 61/2/1 60/2/1
f 64/1/1 60/1/1 63/1/1
f 65/3/1 62/3/1 61/3/1
f 65/2/1 61/2/1 64/2/1
f 66/3/1 62/3/1 65/3/1
f 69/4/1 68/4/1 67/4/1
f 70/4/1 68/4/1 69/4/1
f 71/4/1 68/4/1 70/4/1
f 72/4/1 71/4/1 70/4/1
f 73/4/1 71/4/1 72/4/1
f 76/2/1 75/2/1 74/2/1
f 77/2/1 75/2/1 76/2/1
f 78/2/1 77/2/1 76/2/1
f 79/2/1 77/2/1 78/2/1
f 82/4/1 81/4/1 80/4/1
f 83/4/1 82/4/1 80/4/1
f 86/4/1 85/4/1 84/4/1
f 87/4/1 85/4/1 86/4/1
f 88/4/1 83/4/1 80/4/1
f 89/4/1 83/4/1 88/4/1
f 90/4/2 91/4/2 92/4/2
f 92/4/2 91/4/2 93/4/2
f 94/4/2 95/4/2 96/4/2
f 96/4/2 95/4/2 97/4/2
f 98/4/2 99/4/2 100/4/2
f 100/4/2 99/4/2 101/4/2
f 101/4/2 99/4/2 102/4/2
f 101/4/2 102/4/2 103/4/2
f 103/4/2 102/4/2 104/4/2
f 105/2/2 106/2/2 107/2/2
f 107/2/2 106/2/2 108/2/2
f 108/2/2 106/2/2 109/2/2
f 109/2/2 106/2/2 110/2/2
f 109/6/2 110/6/2 111/6/2
f 110/2/2 106/2/2 112/2/2
f 111/6/2 110/6/2 112/6/2
f 112/2/2 106/2/2 113/2/2
f 113/2/2 106/2/2 114/2/2
f 114/2/2 106/2/2 115/2/2
f 111/1/2 112/1/2 116/1/2
f 112/1/2 113/1/2 116/1/2
f 113/2/2 114/2/2 117/2/2
f 116/1/2 113/1/2 117/1/2
f 114/3/2 115/3/2 118/3/2
f 117/2/2 114/2/2 118/2/2
f 118/3/2 115/3/2 119/3/2
f 120/5/2 121/5/2 123/5/2
f 123/5/2 121/5/2 124/5/2
f 124/5/2 121/5/2 125/5/2
f 125/5/2 121/5/2 126/5/2
f 126/5/2 121/5/2 127/5/2
f 122/4/2 123/4/2 128/4/2
f 123/1/2 124/1/2 128/1/2
f 128/1/2 124/1/2 129/1/2
f 129/1/2 124/1/2 130/1/2
f 130/1/2 124/1/2 131/1/2
f 126/2/2 127/2/2 132/2/2
f 125/1/2 126/1/2 132/1/2
f 132/2/2 127/2/2 133/2/2
f 122/4/2 128/4/2 134/4/2
f 128/2/2 129/2/2 134/2/2
f 129/1/2 130/1/2 135/1/2
f 134/2/2 129/2/2 135/2/2
f 131/1/2 124/1/2 136/1/2
f 130/2/2 131/2/2 136/2/2
f 124/2/2 125/2/2 137/2/2
f 136/1/2 124/1/2 137/1/2
f 125/1/2 132/1/2 138/1/2
f 137/2/2 125/2/2 138/2/2
f 138/1/2 132/1/2 139/1/2
f 139/1/2 132/1/2 140/1/2
f 133/2/2 127/2/2 141/2/2
f 134/1/2 135/1/2 142/1/2
f 122/4/2 134/4/2 142/4/2
f 135/1/2 130/1/2 143/1/2
f 142/1/2 135/1/2 143/1/2
f 130/2/2 136/2/2 143/2/2
f 136/2/2 137/2/2 143/2/2
f 138/1/2 139/1/2 144/1/2
f 143/2/2 137/2/2 144/2/2
f 137/1/2 138/1/2 144/1/2
f 139/2/2 140/2/2 145/2/2
f 144/1/2 139/1/2 145/1/2
f 145/2/2 140/2/2 146/2/2
f 141/2/2 127/2/2 147/2/2
f 147/2/2 127/2/2 148/2/2
f 122/4/2 142/4/2 149/4/2
f 149/4/2 142/4/2 150/4/2
f 151/4/2 152/4/2 153/4/2
f 153/4/2 152/4/2 154/4/2
f 151/4/2 153/4/2 155/4/2
f 153/2/2 154/2/2 155/2/2
f 155/2/2 154/2/2 156/2/2
f 151/4/2 155/4/2 157/4/2
f 157/4/2 155/4/2 158/4/2
f 161/4/3 160/4/3 159/4/3
f 162/4/3 160/4/3 161/4/3
f 165/4/3 164/4/3 163/4/3
f 166/4/3 164/4/3 165/4/3
f 169/4/3 168/4/3 167/4/3
f 170/4/3 168/4/3 169/4/3
f 176/5/3 172/5/3 171/5/3
f 176/1/3 173/1/3 172/1/3
f 177/2/3 174/2/3 173/2/3
f 177/1/3 173/1/3 176/1/3
f 178/5/3 176/5/3 171/5/3
f 179/2/3 177/2/3 176/2/3
f 179/5/3 176/5/3 178/5/3
f 180/2/3 174/2/3 177/2/3
f 180/2/3 177/2/3 179/2/3
f 181/1/3 175/1/3 174/1/3
f 181/2/3 174/2/3 180/2/3
f 182/1/3 175/1/3 181/1/3
f 185/2/3 181/2/3 180/2/3
f 185/2/3 182/2/3 181/2/3
f 186/2/3 182/2/3 185/2/3
f 187/2/3 182/2/3 186/2/3
f 188/5/3 184/5/3 183/5/3
f 188/2/3 185/2/3 184/2/3
f 188/2/3 186/2/3 185/2/3
f 189/1/3 187/1/3 186/1/3
f 189/2/3 186/2/3 188/2/3
f 190/1/3 187/1/3 189/1/3
f 191/5/3 188/5/3 183/5/3
f 192/5/3 188/5/3 191/5/3
f 195/4/3 194/4/3 193/4/3
f 196/4/3 194/4/3 195/4/3
f 197/4/3 194/4/3 196/4/3
f 198/4/3 194/4/3 197/4/3
f 199/4/3 194/4/3 198/4/3
f 202/4/3 201/4/3 200/4/3
f 203/4/3 201/4/3 202/4/3
f 204/4/3 201/4/3 203/4/3
f 205/4/3 201/4/3 204/4/3
f 210/4/3 207/4/3 206/4/3
f 211/4/3 209/4/3 208/4/3
f 211/4/3 210/4/3 209/4/3
f 212/4/3 207/4/3 210/4/3
f 212/4/3 210/4/3 211/4/3
f 216/2/3 214/2/3 213/2/3
f 216/2/3 215/2/3 214/2/3
f 217/2/3 215/2/3 216/2/3
f 218/2/3 216/2/3 213/2/3
f 219/4/3 217/4/3 216/4/3
f 219/2/3 216/2/3 218/2/3
f 220/4/3 217/4/3 219/4/3
f 221/2/3 220/2/3 219/2/3
f 222/2/3 220/2/3 221/2/3
f 228/3/3 224/3/3 223/3/3
f 229/1/3 225/1/3 224/1/3
f 229/3/3 224/3/3 228/3/3
f 230/2/3 226/2/3 225/2/3
f 230/1/3 225/1/3 229/1/3
f 231/1/3 227/1/3 226/1/3
f 231/2/3 226/2/3 230/2/3
f 232/6/3 231/6/3 230/6/3
f 233/1/3 227/1/3 231/1/3
f 233/6/3 231/6/3 232/6/3
f 234/1/3 227/1/3 233/1/3
f 235/3/3 233/3/3 232/3/3
f 235/3/3 234/3/3 233/3/3
f 236/3/3 234/3/3 235/3/3
f 237/3/3 234/3/3 236/3/3
f 238/6/3 236/6/3 235/6/3
f 239/1/3 237/1/3 236/1/3
f 239/6/3 236/6/3 238/6/3
f 240/1/3 237/1/3 239/1/3
f 241/4/4 242/4/4 243/4/4
f 243/4/4 242/4/4 244/4/4
f 245/4/4 246/4/4 247/4/4
f 247/4/4 246/4/4 248/4/4
f 248/4/4 246/4/4 249/4/4
f 249/4/4 246/4/4 250/4/4
f 251/4/4 252/4/4 253/4/4
f 253/4/4 252/4/4 254/4/4
f 254/4/4 252/4/4 255/4/4
f 256/4/4 257/4/4 258/4/4
f 258/4/4 257/4/4 259/4/4
f 260/4/4 261/4/4 263/4/4
f 261/1/4 262/1/4 264/1/4
f 263/4/4 261/4/4 264/4/4
f 264/1/4 262/1/4 265/1/4
f 266/4/4 267/4/4 269/4/4
f 267/2/4 268/2/4 270/2/4
f 269/4/4 267/4/4 270/4/4
f 270/2/4 268/2/4 271/2/4
f 272/5/4 273/5/4 275/5/4
f 273/3/4 274/3/4 275/3/4
f 275/3/4 274/3/4 276/3/4
f 275/2/4 276/2/4 280/2/4
f 276/3/4 277/3/4 280/3/4
f 277/2/4 278/2/4 281/2/4
f 280/3/4 277/3/4 281/3/4
f 278/3/4 279/3/4 282/3/4
f 281/2/4 278/2/4 282/2/4
f 282/3/4 279/3/4 283/3/4
f 280/2/4 281/2/4 284/2/4
f 281/2/4 282/2/4 284/2/4
f 282/1/4 283/1/4 284/1/4
f 284/1/4 283/1/4 285/1/4
f 280/2/4 284/2/4 286/2/4
f 284/2/4 285/2/4 286/2/4
f 286/2/4 285/2/4 287/2/4
f 275/2/4 280/2/4 288/2/4
f 280/2/4 286/2/4 288/2/4
f 286/3/4 287/3/4 289/3/4
f 288/2/4 286/2/4 289/2/4
f 289/3/4 287/3/4 290/3/4
f 272/5/4 275/5/4 291/5/4
f 275/2/4 288/2/4 292/2/4
f 291/5/4 275/5/4 292/5/4
f 292/2/4 288/2/4 293/2/4
f 297/4/5 295/4/5 294/4/5
f 298/4/5 295/4/5 297/4/5
f 300/5/5 297/5/5 296/5/5
f 300/5/5 299/5/5 298/5/5
f 300/5/5 298/5/5 297/5/5
f 301/5/5 299/5/5 300/5/5
f 304/4/5 303/4/5 302/4/5
f 305/4/5 303/4/5 304/4/5
f 308/4/5 307/4/5 306/4/5
f 309/4/5 307/4/5 308/4/5
f 314/4/5 311/4/5 310/4/5
f 315/4/5 311/4/5 314/4/5
f 316/4/5 313/4/5 312/4/5
f 317/4/5 313/4/5 316/4/5
f 318/4/6 319/4/6 320/4/6
f 320/4/6 319/4/6 321/4/6
f 322/4/6 323/4/6 324/4/6
f 324/4/6 323/4/6 325/4/6
f 326/1/6 327/1/6 331/1/6
f 327/2/6 328/2/6 332/2/6
f 331/1/6 327/1/6 332/1/6
f 329/1/6 330/1/6 333/1/6
f 332/2/6 328/2/6 333/2/6
f 328/1/6 329/1/6 333/1/6
f 333/1/6 330/1/6 334/1/6
f 331/1/6 332/1/6 335/1/6
f 332/1/6 333/1/6 335/1/6
f 335/1/6 333/1/6 336/1/6
f 333/2/6 334/2/6 337/2/6
f 336/1/6 333/1/6 337/1/6
f 334/1/6 330/1/6 338/1/6
f 337/2/6 334/2/6 338/2/6
f 338/1/6 330/1/6 339/1/6
f 339/1/6 330/1/6 340/1/6
f 331/1/6 335/1/6 341/1/6
f 335/2/6 336/2/6 342/2/6
f 341/1/6 335/1/6 342/1/6
f 336/1/6 337/1/6 343/1/6
f 342/2/6 336/2/6 343/2/6
f 337/1/6 338/1/6 343/1/6
f 338/1/6 339/1/6 343/1/6
f 339/2/6 340/2/6 344/2/6
f 343/1/6 339/1/6 344/1/6
f 344/2/6 340/2/6 345/2/6
f 341/1/6 342/1/6 346/1/6
f 342/1/6 343/1/6 346/1/6
f 344/1/6 345/1/6 346/1/6
f 343/1/6 344/1/6 346/1/6
f 346/1/6 345/1/6 347/1/6
f 347/1/6 345/1/6 348/1/6
f 348/1/6 345/1/6 349/1/6
f 349/1/6 345/1/6 350/1/6
f 350/1/6 345/1/6 351/1/6
f 346/2/6 347/2/6 352/2/6
f 347/1/6 348/1/6 352/1/6
f 348/2/6 349/2/6 353/2/6
f 352/1/6 348/1/6 353/1/6
f 351/1/6 345/1/6 354/1/6
f 350/2/6 351/2/6 354/2/6
f 354/1/6 345/1/6 355/1/6
f 352/2/6 353/2/6 356/2/6
f 346/2/6 352/2/6 356/2/6
f 353/2/6 349/2/6 357/2/6
f 356/2/6 353/2/6 357/2/6
f 349/1/6 350/1/6 358/1/6
f 357/2/6 349/2/6 358/2/6
f 354/2/6 355/2/6 359/2/6
f 358/1/6 350/1/6 359/1/6
f 350/2/6 354/2/6 359/2/6
f 359/2/6 355/2/6 360/2/6
f 357/2/6 358/2/6 363/2/6
f 358/2/6 359/2/6 363/2/6
f 363/2/6 359/2/6 364/2/6
f 361/4/6 362/4/6 367/4/6
f 362/2/6 363/2/6 368/2/6
f 367/4/6 362/4/6 368/4/6
f 368/2/6 363/2/6 369/2/6
f 369/2/6 363/2/6 370/2/6
f 367/2/6 368/2/6 371/2/6
f 368/2/6 369/2/6 371/2/6
f 371/2/6 369/2/6 372/2/6
f 372/2/6 369/2/6 373/2/6
f 371/1/6 372/1/6 374/1/6
f 372/2/6 373/2/6 375/2/6
f 374/1/6 372/1/6 375/1/6
f 375/2/6 373/2/6 376/2/6
f 365/2/6 366/2/6 377/2/6
f 377/2/6 366/2/6 378/2/6
f 375/2/6 376/2/6 379/2/6
f 379/2/6 376/2/6 380/2/6
f 379/3/6 380/3/6 381/3/6
f 381/3/6 380/3/6 382/3/6
f 365/2/6 377/2/6 383/2/6
f 383/2/6 377/2/6 384/2/6
f 385/4/6 386/4/6 389/4/6
f 389/4/6 386/4/6 390/4/6
f 387/4/6 388/4/6 391/4/6
f 391/4/6 388/4/6 392/4/6
f 392/4/6 388/4/6 393/4/6
f 394/4/6 395/4/6 396/4/6
f 396/4/6 395/4/6 397/4/6
f 398/4/6 399/4/6 400/4/6
f 400/4/6 399/4/6 401/4/6
f 402/2/6 403/2/6 406/2/6
f 403/4/6 404/4/6 407/4/6
f 406/2/6 403/2/6 407/2/6
f 404/2/6 405/2/6 408/2/6
f 407/4/6 404/4/6 408/4/6
f 408/2/6 405/2/6 409/2/6
f 410/1/6 411/1/6 414/1/6
f 411/3/6 412/3/6 415/3/6
f 414/1/6 411/1/6 415/1/6
f 412/1/6 413/1/6 416/1/6
f 415/3/6 412/3/6 416/3/6
f 410/1/6 414/1/6 417/1/6
f 414/2/6 415/2/6 418/2/6
f 417/1/6 414/1/6 418/1/6
f 415/2/6 416/2/6 418/2/6
f 416/1/6 413/1/6 419/1/6
f 418/2/6 416/2/6 419/2/6
f 419/1/6 413/1/6 420/1/6
f 417/2/6 418/2/6 421/2/6
f 418/2/6 419/2/6 421/2/6
f 419/2/6 420/2/6 421/2/6
f 421/2/6 420/2/6 422/2/6
f 422/2/6 420/2/6 423/2/6
f 423/2/6 420/2/6 424/2/6
f 424/2/6 420/2/6 425/2/6
f 421/3/6 422/3/6 426/3/6
f 422/1/6 423/1/6 427/1/6
f 426/3/6 422/3/6 427/3/6
f 423/2/6 424/2/6 428/2/6
f 427/1/6 423/1/6 428/1/6
f 424/3/6 425/3/6 429/3/6
f 428/2/6 424/2/6 429/2/6
f 429/3/6 425/3/6 430/3/6
